<?xml version="1.0" encoding="utf-8"?>
<!-- Generated by Mocodo 4.3.3 -->
<svg width="2192" height="1903" viewBox="0 0 2192 1903" xmlns="http://www.w3.org/2000/svg">
<rect x="0" y="0" width="2192" height="1903" fill="#FFFFFF" stroke="none" stroke-width="0"/>

<!-- Association SENT_FROM -->
<g>
	<line x1="649" y1="662" x2="486" y2="301" stroke="#000000" stroke-width="1"/>
	<line x1="649" y1="301" x2="486" y2="301" stroke="#000000" stroke-width="1"/>
	<g>
		<path d="M536 275 a14 14 90 0 1 14 14 V301 h-128 V289 a14 14 90 0 1 14 -14" fill="#FFFFFF" stroke="#FFFFFF" stroke-width="0"/>
		<path d="M550 301 v12 a14 14 90 0 1 -14 14 H436 a14 14 90 0 1 -14 -14 V301 H128" fill="#FFFFFF" stroke="#FFFFFF" stroke-width="0"/>
		<rect x="422" y="275" width="128" height="52" fill="none" rx="14" stroke="#000000" stroke-width="1.5"/>
		<line x1="422" y1="301" x2="550" y2="301" stroke="#000000" stroke-width="1"/>
		<text x="448" y="293.6" fill="#000000" font-family="Trebuchet MS" font-size="14">SENT_FROM</text>
		<text x="429" y="319.6" fill="#000000" font-family="Trebuchet MS" font-size="14">sender_username</text>
	</g>
	<text x="626.53" y="601" fill="#000000" font-family="Verdana" font-size="12">0,N</text>
	<text x="556" y="318" fill="#000000" font-family="Verdana" font-size="12">1,1</text>
</g>

<!-- Association IS_ONLINE -->
<g>
	<line x1="649" y1="662" x2="793" y2="301" stroke="#000000" stroke-width="1"/>
	<line x1="793" y1="89" x2="793" y2="301" stroke="#000000" stroke-width="1"/>
	<g>
		<path d="M819 275 a14 14 90 0 1 14 14 V301 h-80 V289 a14 14 90 0 1 14 -14" fill="#FFFFFF" stroke="#FFFFFF" stroke-width="0"/>
		<path d="M833 301 v12 a14 14 90 0 1 -14 14 H767 a14 14 90 0 1 -14 -14 V301 H80" fill="#FFFFFF" stroke="#FFFFFF" stroke-width="0"/>
		<rect x="753" y="275" width="80" height="52" fill="none" rx="14" stroke="#000000" stroke-width="1.5"/>
		<line x1="753" y1="301" x2="833" y2="301" stroke="#000000" stroke-width="1"/>
		<text x="760" y="293.6" fill="#000000" font-family="Trebuchet MS" font-size="14">IS_ONLINE</text>
	</g>
	<text x="646.26" y="601" fill="#000000" font-family="Verdana" font-size="12">1,N</text>
	<text x="798" y="186" fill="#000000" font-family="Verdana" font-size="12">0,N</text>
</g>

<!-- Association HAS_STATUS -->
<g>
	<line x1="649" y1="662" x2="279" y2="495" stroke="#000000" stroke-width="1"/>
	<line x1="104" y1="495" x2="279" y2="495" stroke="#000000" stroke-width="1"/>
	<g>
		<path d="M313 469 a14 14 90 0 1 14 14 V495 h-96 V483 a14 14 90 0 1 14 -14" fill="#FFFFFF" stroke="#FFFFFF" stroke-width="0"/>
		<path d="M327 495 v12 a14 14 90 0 1 -14 14 H245 a14 14 90 0 1 -14 -14 V495 H96" fill="#FFFFFF" stroke="#FFFFFF" stroke-width="0"/>
		<rect x="231" y="469" width="96" height="52" fill="none" rx="14" stroke="#000000" stroke-width="1.5"/>
		<line x1="231" y1="495" x2="327" y2="495" stroke="#000000" stroke-width="1"/>
		<text x="238" y="487.6" fill="#000000" font-family="Trebuchet MS" font-size="14">HAS_STATUS</text>
	</g>
	<text x="569" y="651.54" fill="#000000" font-family="Verdana" font-size="12">1,N</text>
	<text x="204" y="512" fill="#000000" font-family="Verdana" font-size="12">0,N</text>
</g>

<!-- Association JOIN_BY -->
<g>
	<line x1="649" y1="662" x2="486" y2="495" stroke="#000000" stroke-width="1"/>
	<line x1="279" y1="301" x2="486" y2="495" stroke="#000000" stroke-width="1"/>
	<g>
		<path d="M506 469 a14 14 90 0 1 14 14 V495 h-68 V483 a14 14 90 0 1 14 -14" fill="#FFFFFF" stroke="#FFFFFF" stroke-width="0"/>
		<path d="M520 495 v12 a14 14 90 0 1 -14 14 H466 a14 14 90 0 1 -14 -14 V495 H68" fill="#FFFFFF" stroke="#FFFFFF" stroke-width="0"/>
		<rect x="452" y="469" width="68" height="52" fill="none" rx="14" stroke="#000000" stroke-width="1.5"/>
		<line x1="452" y1="495" x2="520" y2="495" stroke="#000000" stroke-width="1"/>
		<text x="459" y="487.6" fill="#000000" font-family="Trebuchet MS" font-size="14">JOIN_BY</text>
	</g>
	<text x="595.32" y="601" fill="#000000" font-family="Verdana" font-size="12">1,N</text>
	<text x="334.5" y="389" fill="#000000" font-family="Verdana" font-size="12">0,N</text>
</g>

<!-- Association SENT_TO -->
<g>
	<line x1="649" y1="662" x2="649" y2="495" stroke="#000000" stroke-width="1"/>
	<line x1="649" y1="301" x2="649" y2="495" stroke="#000000" stroke-width="1"/>
	<g>
		<path d="M696 469 a14 14 90 0 1 14 14 V495 h-122 V483 a14 14 90 0 1 14 -14" fill="#FFFFFF" stroke="#FFFFFF" stroke-width="0"/>
		<path d="M710 495 v12 a14 14 90 0 1 -14 14 H602 a14 14 90 0 1 -14 -14 V495 H122" fill="#FFFFFF" stroke="#FFFFFF" stroke-width="0"/>
		<rect x="588" y="469" width="122" height="52" fill="none" rx="14" stroke="#000000" stroke-width="1.5"/>
		<line x1="588" y1="495" x2="710" y2="495" stroke="#000000" stroke-width="1"/>
		<text x="620" y="487.6" fill="#000000" font-family="Trebuchet MS" font-size="14">SENT_TO</text>
		<text x="595" y="513.6" fill="#000000" font-family="Trebuchet MS" font-size="14">receiver_user_id</text>
	</g>
	<text x="654" y="601" fill="#000000" font-family="Verdana" font-size="12">0,N</text>
	<text x="654" y="425" fill="#000000" font-family="Verdana" font-size="12">1,1</text>
</g>

<!-- Association LOGGED -->
<g>
	<line x1="649" y1="662" x2="793" y2="495" stroke="#000000" stroke-width="1"/>
	<line x1="967" y1="301" x2="793" y2="495" stroke="#000000" stroke-width="1"/>
	<g>
		<path d="M813 469 a14 14 90 0 1 14 14 V495 h-68 V483 a14 14 90 0 1 14 -14" fill="#FFFFFF" stroke="#FFFFFF" stroke-width="0"/>
		<path d="M827 495 v12 a14 14 90 0 1 -14 14 H773 a14 14 90 0 1 -14 -14 V495 H68" fill="#FFFFFF" stroke="#FFFFFF" stroke-width="0"/>
		<rect x="759" y="469" width="68" height="52" fill="none" rx="14" stroke="#000000" stroke-width="1.5"/>
		<line x1="759" y1="495" x2="827" y2="495" stroke="#000000" stroke-width="1"/>
		<text x="766" y="487.6" fill="#000000" font-family="Trebuchet MS" font-size="14">LOGGED</text>
	</g>
	<text x="674.03" y="601" fill="#000000" font-family="Verdana" font-size="12">1,N</text>
	<text x="885.65" y="407" fill="#000000" font-family="Verdana" font-size="12">0,N</text>
</g>

<!-- Association POSTED -->
<g>
	<line x1="649" y1="662" x2="967" y2="495" stroke="#000000" stroke-width="1"/>
	<line x1="1093" y1="495" x2="967" y2="495" stroke="#000000" stroke-width="1"/>
	<g>
		<path d="M985 469 a14 14 90 0 1 14 14 V495 h-64 V483 a14 14 90 0 1 14 -14" fill="#FFFFFF" stroke="#FFFFFF" stroke-width="0"/>
		<path d="M999 495 v12 a14 14 90 0 1 -14 14 H949 a14 14 90 0 1 -14 -14 V495 H64" fill="#FFFFFF" stroke="#FFFFFF" stroke-width="0"/>
		<rect x="935" y="469" width="64" height="52" fill="none" rx="14" stroke="#000000" stroke-width="1.5"/>
		<line x1="935" y1="495" x2="999" y2="495" stroke="#000000" stroke-width="1"/>
		<text x="942" y="487.6" fill="#000000" font-family="Trebuchet MS" font-size="14">POSTED</text>
	</g>
	<text x="707" y="647.07" fill="#000000" font-family="Verdana" font-size="12">1,N</text>
	<text x="1004" y="512" fill="#000000" font-family="Verdana" font-size="12">0,N</text>
</g>

<!-- Association HAS_AVATAR -->
<g>
	<line x1="649" y1="662" x2="486" y2="662" stroke="#000000" stroke-width="1"/>
	<line x1="279" y1="662" x2="486" y2="662" stroke="#000000" stroke-width="1"/>
	<g>
		<path d="M521 636 a14 14 90 0 1 14 14 V662 h-98 V650 a14 14 90 0 1 14 -14" fill="#FFFFFF" stroke="#FFFFFF" stroke-width="0"/>
		<path d="M535 662 v12 a14 14 90 0 1 -14 14 H451 a14 14 90 0 1 -14 -14 V662 H98" fill="#FFFFFF" stroke="#FFFFFF" stroke-width="0"/>
		<rect x="437" y="636" width="98" height="52" fill="none" rx="14" stroke="#000000" stroke-width="1.5"/>
		<line x1="437" y1="662" x2="535" y2="662" stroke="#000000" stroke-width="1"/>
		<text x="444" y="654.6" fill="#000000" font-family="Trebuchet MS" font-size="14">HAS_AVATAR</text>
	</g>
	<text x="569" y="679" fill="#000000" font-family="Verdana" font-size="12">1,N</text>
	<text x="410" y="679" fill="#000000" font-family="Verdana" font-size="12">0,N</text>
</g>

<!-- Association FAV_FRIEND_OF -->
<g>
	<line x1="649" y1="662" x2="793" y2="662" stroke="#000000" stroke-width="1"/>
	<line x1="967" y1="662" x2="793" y2="662" stroke="#000000" stroke-width="1"/>
	<g>
		<path d="M838 636 a14 14 90 0 1 14 14 V662 h-118 V650 a14 14 90 0 1 14 -14" fill="#FFFFFF" stroke="#FFFFFF" stroke-width="0"/>
		<path d="M852 662 v12 a14 14 90 0 1 -14 14 H748 a14 14 90 0 1 -14 -14 V662 H118" fill="#FFFFFF" stroke="#FFFFFF" stroke-width="0"/>
		<rect x="734" y="636" width="118" height="52" fill="none" rx="14" stroke="#000000" stroke-width="1.5"/>
		<line x1="734" y1="662" x2="852" y2="662" stroke="#000000" stroke-width="1"/>
		<text x="742" y="654.6" fill="#000000" font-family="Trebuchet MS" font-size="14">FAV_FRIEND_OF</text>
	</g>
	<text x="707" y="679" fill="#000000" font-family="Verdana" font-size="12">1,N</text>
	<text x="857" y="679" fill="#000000" font-family="Verdana" font-size="12">0,N</text>
</g>

<!-- Association SESSION_FOR -->
<g>
	<line x1="104" y1="820" x2="279" y2="820" stroke="#000000" stroke-width="1"/>
	<line x1="649" y1="662" x2="279" y2="820" stroke="#000000" stroke-width="1"/>
	<g>
		<path d="M315 794 a14 14 90 0 1 14 14 V820 h-100 V808 a14 14 90 0 1 14 -14" fill="#FFFFFF" stroke="#FFFFFF" stroke-width="0"/>
		<path d="M329 820 v12 a14 14 90 0 1 -14 14 H243 a14 14 90 0 1 -14 -14 V820 H100" fill="#FFFFFF" stroke="#FFFFFF" stroke-width="0"/>
		<rect x="229" y="794" width="100" height="52" fill="none" rx="14" stroke="#000000" stroke-width="1.5"/>
		<line x1="229" y1="820" x2="329" y2="820" stroke="#000000" stroke-width="1"/>
		<text x="237" y="812.6" fill="#000000" font-family="Trebuchet MS" font-size="14">SESSION_FOR</text>
	</g>
	<text x="190" y="837" fill="#000000" font-family="Verdana" font-size="12">1,1</text>
	<text x="569" y="679.98" fill="#000000" font-family="Verdana" font-size="12">0,N</text>
</g>

<!-- Association HAS_BIO -->
<g>
	<line x1="649" y1="662" x2="486" y2="820" stroke="#000000" stroke-width="1"/>
	<line x1="279" y1="924" x2="486" y2="820" stroke="#000000" stroke-width="1"/>
	<g>
		<path d="M507 794 a14 14 90 0 1 14 14 V820 h-70 V808 a14 14 90 0 1 14 -14" fill="#FFFFFF" stroke="#FFFFFF" stroke-width="0"/>
		<path d="M521 820 v12 a14 14 90 0 1 -14 14 H465 a14 14 90 0 1 -14 -14 V820 H70" fill="#FFFFFF" stroke="#FFFFFF" stroke-width="0"/>
		<rect x="451" y="794" width="70" height="52" fill="none" rx="14" stroke="#000000" stroke-width="1.5"/>
		<line x1="451" y1="820" x2="521" y2="820" stroke="#000000" stroke-width="1"/>
		<text x="459" y="812.6" fill="#000000" font-family="Trebuchet MS" font-size="14">HAS_BIO</text>
	</g>
	<text x="569" y="712.29" fill="#000000" font-family="Verdana" font-size="12">1,N</text>
	<text x="337" y="910.44" fill="#000000" font-family="Verdana" font-size="12">0,N</text>
</g>

<!-- Association MOD_FOR -->
<g>
	<line x1="793" y1="820" x2="649" y2="820" stroke="#000000" stroke-width="1"/>
	<line x1="649" y1="662" x2="649" y2="820" stroke="#000000" stroke-width="1"/>
	<g>
		<path d="M674 794 a14 14 90 0 1 14 14 V820 h-78 V808 a14 14 90 0 1 14 -14" fill="#FFFFFF" stroke="#FFFFFF" stroke-width="0"/>
		<path d="M688 820 v12 a14 14 90 0 1 -14 14 H624 a14 14 90 0 1 -14 -14 V820 H78" fill="#FFFFFF" stroke="#FFFFFF" stroke-width="0"/>
		<rect x="610" y="794" width="78" height="52" fill="none" rx="14" stroke="#000000" stroke-width="1.5"/>
		<line x1="610" y1="820" x2="688" y2="820" stroke="#000000" stroke-width="1"/>
		<text x="618" y="812.6" fill="#000000" font-family="Trebuchet MS" font-size="14">MOD_FOR</text>
	</g>
	<text x="703" y="837" fill="#000000" font-family="Verdana" font-size="12">1,1</text>
	<text x="654" y="732" fill="#000000" font-family="Verdana" font-size="12">0,N</text>
</g>

<!-- Association MEMO_FOR_USER -->
<g>
	<line x1="967" y1="924" x2="967" y2="820" stroke="#000000" stroke-width="1"/>
	<line x1="649" y1="662" x2="967" y2="820" stroke="#000000" stroke-width="1"/>
	<g>
		<path d="M1016 794 a14 14 90 0 1 14 14 V820 h-126 V808 a14 14 90 0 1 14 -14" fill="#FFFFFF" stroke="#FFFFFF" stroke-width="0"/>
		<path d="M1030 820 v12 a14 14 90 0 1 -14 14 H918 a14 14 90 0 1 -14 -14 V820 H126" fill="#FFFFFF" stroke="#FFFFFF" stroke-width="0"/>
		<rect x="904" y="794" width="126" height="52" fill="none" rx="14" stroke="#000000" stroke-width="1.5"/>
		<line x1="904" y1="820" x2="1030" y2="820" stroke="#000000" stroke-width="1"/>
		<text x="911" y="812.6" fill="#000000" font-family="Trebuchet MS" font-size="14">MEMO_FOR_USER</text>
	</g>
	<text x="972" y="881" fill="#000000" font-family="Verdana" font-size="12">1,1</text>
	<text x="707" y="684.22" fill="#000000" font-family="Verdana" font-size="12">0,N</text>
</g>

<!-- Association NOTE_FOR -->
<g>
	<line x1="486" y1="1010" x2="486" y2="924" stroke="#000000" stroke-width="1"/>
	<line x1="649" y1="662" x2="486" y2="924" stroke="#000000" stroke-width="1"/>
	<g>
		<path d="M514 898 a14 14 90 0 1 14 14 V924 h-84 V912 a14 14 90 0 1 14 -14" fill="#FFFFFF" stroke="#FFFFFF" stroke-width="0"/>
		<path d="M528 924 v12 a14 14 90 0 1 -14 14 H458 a14 14 90 0 1 -14 -14 V924 H84" fill="#FFFFFF" stroke="#FFFFFF" stroke-width="0"/>
		<rect x="444" y="898" width="84" height="52" fill="none" rx="14" stroke="#000000" stroke-width="1.5"/>
		<line x1="444" y1="924" x2="528" y2="924" stroke="#000000" stroke-width="1"/>
		<text x="452" y="916.6" fill="#000000" font-family="Trebuchet MS" font-size="14">NOTE_FOR</text>
	</g>
	<text x="491" y="967" fill="#000000" font-family="Verdana" font-size="12">1,1</text>
	<text x="616.22" y="732" fill="#000000" font-family="Verdana" font-size="12">0,N</text>
</g>

<!-- Association FAV_WORLD_OF -->
<g>
	<line x1="1413" y1="1159" x2="1413" y2="1010" stroke="#000000" stroke-width="1"/>
	<line x1="1218" y1="1010" x2="1413" y2="1010" stroke="#000000" stroke-width="1"/>
	<g>
		<path d="M1458 984 a14 14 90 0 1 14 14 V1010 h-118 V998 a14 14 90 0 1 14 -14" fill="#FFFFFF" stroke="#FFFFFF" stroke-width="0"/>
		<path d="M1472 1010 v12 a14 14 90 0 1 -14 14 H1368 a14 14 90 0 1 -14 -14 V1010 H118" fill="#FFFFFF" stroke="#FFFFFF" stroke-width="0"/>
		<rect x="1354" y="984" width="118" height="52" fill="none" rx="14" stroke="#000000" stroke-width="1.5"/>
		<line x1="1354" y1="1010" x2="1472" y2="1010" stroke="#000000" stroke-width="1"/>
		<text x="1361" y="1002.6" fill="#000000" font-family="Trebuchet MS" font-size="14">FAV_WORLD_OF</text>
	</g>
	<text x="1418" y="1053" fill="#000000" font-family="Verdana" font-size="12">0,N</text>
	<text x="1306" y="1027" fill="#000000" font-family="Verdana" font-size="12">1,1</text>
</g>

<!-- Association AT_WORLD -->
<g>
	<line x1="1413" y1="1159" x2="1218" y2="1159" stroke="#000000" stroke-width="1"/>
	<line x1="1218" y1="1344" x2="1218" y2="1159" stroke="#000000" stroke-width="1"/>
	<g>
		<path d="M1247 1133 a14 14 90 0 1 14 14 V1159 h-86 V1147 a14 14 90 0 1 14 -14" fill="#FFFFFF" stroke="#FFFFFF" stroke-width="0"/>
		<path d="M1261 1159 v12 a14 14 90 0 1 -14 14 H1189 a14 14 90 0 1 -14 -14 V1159 H86" fill="#FFFFFF" stroke="#FFFFFF" stroke-width="0"/>
		<rect x="1175" y="1133" width="86" height="52" fill="none" rx="14" stroke="#000000" stroke-width="1.5"/>
		<line x1="1175" y1="1159" x2="1261" y2="1159" stroke="#000000" stroke-width="1"/>
		<text x="1182" y="1151.6" fill="#000000" font-family="Trebuchet MS" font-size="14">AT_WORLD</text>
	</g>
	<text x="1312" y="1176" fill="#000000" font-family="Verdana" font-size="12">0,N</text>
	<text x="1223" y="1274" fill="#000000" font-family="Verdana" font-size="12">1,1</text>
</g>

<!-- Association MEMO_FOR_WORLD -->
<g>
	<line x1="1413" y1="1466" x2="1413" y2="1344" stroke="#000000" stroke-width="1"/>
	<line x1="1413" y1="1159" x2="1413" y2="1344" stroke="#000000" stroke-width="1"/>
	<g>
		<path d="M1469 1318 a14 14 90 0 1 14 14 V1344 h-140 V1332 a14 14 90 0 1 14 -14" fill="#FFFFFF" stroke="#FFFFFF" stroke-width="0"/>
		<path d="M1483 1344 v12 a14 14 90 0 1 -14 14 H1357 a14 14 90 0 1 -14 -14 V1344 H140" fill="#FFFFFF" stroke="#FFFFFF" stroke-width="0"/>
		<rect x="1343" y="1318" width="140" height="52" fill="none" rx="14" stroke="#000000" stroke-width="1.5"/>
		<line x1="1343" y1="1344" x2="1483" y2="1344" stroke="#000000" stroke-width="1"/>
		<text x="1350" y="1336.6" fill="#000000" font-family="Trebuchet MS" font-size="14">MEMO_FOR_WORLD</text>
	</g>
	<text x="1418" y="1423" fill="#000000" font-family="Verdana" font-size="12">1,1</text>
	<text x="1418" y="1274" fill="#000000" font-family="Verdana" font-size="12">0,N</text>
</g>

<!-- Association MUTUAL_GRAPH_LINK -->
<g>
	<path d="M1844 1466 C1918.67 1432.67 2000 1432.67 2088 1466" fill="none" stroke="#000000" stroke-width="1"/>
	<path d="M1844 1466 C1918.67 1499.33 2000 1499.33 2088 1466" fill="none" stroke="#000000" stroke-width="1"/>
	<g>
		<path d="M2152 1440 a14 14 90 0 1 14 14 V1466 h-156 V1454 a14 14 90 0 1 14 -14" fill="#FFFFFF" stroke="#FFFFFF" stroke-width="0"/>
		<path d="M2166 1466 v12 a14 14 90 0 1 -14 14 H2024 a14 14 90 0 1 -14 -14 V1466 H156" fill="#FFFFFF" stroke="#FFFFFF" stroke-width="0"/>
		<rect x="2010" y="1440" width="156" height="52" fill="none" rx="14" stroke="#000000" stroke-width="1.5"/>
		<line x1="2010" y1="1466" x2="2166" y2="1466" stroke="#000000" stroke-width="1"/>
		<text x="2017" y="1458.6" fill="#000000" font-family="Trebuchet MS" font-size="14">MUTUAL_GRAPH_LINK</text>
	</g>
	<text x="1950" y="1458" fill="#000000" font-family="Verdana" font-size="12">1,N</text>
	<text x="1950" y="1483" fill="#000000" font-family="Verdana" font-size="12">1,N</text>
</g>

<!-- Association MEMO_FOR_AVATAR -->
<g>
	<line x1="1590" y1="1552" x2="1413" y2="1552" stroke="#000000" stroke-width="1"/>
	<line x1="1413" y1="1710" x2="1413" y2="1552" stroke="#000000" stroke-width="1"/>
	<g>
		<path d="M1471 1526 a14 14 90 0 1 14 14 V1552 h-144 V1540 a14 14 90 0 1 14 -14" fill="#FFFFFF" stroke="#FFFFFF" stroke-width="0"/>
		<path d="M1485 1552 v12 a14 14 90 0 1 -14 14 H1355 a14 14 90 0 1 -14 -14 V1552 H144" fill="#FFFFFF" stroke="#FFFFFF" stroke-width="0"/>
		<rect x="1341" y="1526" width="144" height="52" fill="none" rx="14" stroke="#000000" stroke-width="1.5"/>
		<line x1="1341" y1="1552" x2="1485" y2="1552" stroke="#000000" stroke-width="1"/>
		<text x="1348" y="1544.6" fill="#000000" font-family="Trebuchet MS" font-size="14">MEMO_FOR_AVATAR</text>
	</g>
	<text x="1491" y="1569" fill="#000000" font-family="Verdana" font-size="12">1,1</text>
	<text x="1418" y="1604" fill="#000000" font-family="Verdana" font-size="12">0,N</text>
</g>

<!-- Association MUTUAL_GRAPH_LINK_OLD -->
<g>
	<path d="M1844 1552 C1940 1518.67 2021.33 1518.67 2088 1552" fill="none" stroke="#000000" stroke-width="1"/>
	<path d="M1844 1552 C1940 1585.33 2021.33 1585.33 2088 1552" fill="none" stroke="#000000" stroke-width="1"/>
	<g>
		<path d="M2169 1526 a14 14 90 0 1 14 14 V1552 h-190 V1540 a14 14 90 0 1 14 -14" fill="#FFFFFF" stroke="#FFFFFF" stroke-width="0"/>
		<path d="M2183 1552 v12 a14 14 90 0 1 -14 14 H2007 a14 14 90 0 1 -14 -14 V1552 H190" fill="#FFFFFF" stroke="#FFFFFF" stroke-width="0"/>
		<rect x="1993" y="1526" width="190" height="52" fill="none" rx="14" stroke="#000000" stroke-width="1.5"/>
		<line x1="1993" y1="1552" x2="2183" y2="1552" stroke="#000000" stroke-width="1"/>
		<text x="2001" y="1544.6" fill="#000000" font-family="Trebuchet MS" font-size="14">MUTUAL_GRAPH_LINK_OLD</text>
		<text x="2000" y="1570.6" fill="#000000" font-family="Trebuchet MS" font-size="14">date</text>
	</g>
	<text x="1966" y="1544" fill="#000000" font-family="Verdana" font-size="12">1,N</text>
	<text x="1966" y="1569" fill="#000000" font-family="Verdana" font-size="12">1,N</text>
</g>

<!-- Association FAV_AVATAR_OF -->
<g>
	<line x1="1413" y1="1710" x2="1218" y2="1710" stroke="#000000" stroke-width="1"/>
	<line x1="1218" y1="1552" x2="1218" y2="1710" stroke="#000000" stroke-width="1"/>
	<g>
		<path d="M1265 1684 a14 14 90 0 1 14 14 V1710 h-122 V1698 a14 14 90 0 1 14 -14" fill="#FFFFFF" stroke="#FFFFFF" stroke-width="0"/>
		<path d="M1279 1710 v12 a14 14 90 0 1 -14 14 H1171 a14 14 90 0 1 -14 -14 V1710 H122" fill="#FFFFFF" stroke="#FFFFFF" stroke-width="0"/>
		<rect x="1157" y="1684" width="122" height="52" fill="none" rx="14" stroke="#000000" stroke-width="1.5"/>
		<line x1="1157" y1="1710" x2="1279" y2="1710" stroke="#000000" stroke-width="1"/>
		<text x="1164" y="1702.6" fill="#000000" font-family="Trebuchet MS" font-size="14">FAV_AVATAR_OF</text>
	</g>
	<text x="1312" y="1727" fill="#000000" font-family="Verdana" font-size="12">0,N</text>
	<text x="1223" y="1613" fill="#000000" font-family="Verdana" font-size="12">1,1</text>
</g>

<!-- Association TAGGED -->
<g>
	<line x1="1413" y1="1710" x2="1413" y2="1859" stroke="#000000" stroke-width="1"/>
	<line x1="1218" y1="1859" x2="1413" y2="1859" stroke="#000000" stroke-width="1"/>
	<g>
		<path d="M1433 1833 a14 14 90 0 1 14 14 V1859 h-68 V1847 a14 14 90 0 1 14 -14" fill="#FFFFFF" stroke="#FFFFFF" stroke-width="0"/>
		<path d="M1447 1859 v12 a14 14 90 0 1 -14 14 H1393 a14 14 90 0 1 -14 -14 V1859 H68" fill="#FFFFFF" stroke="#FFFFFF" stroke-width="0"/>
		<rect x="1379" y="1833" width="68" height="52" fill="none" rx="14" stroke="#000000" stroke-width="1.5"/>
		<line x1="1379" y1="1859" x2="1447" y2="1859" stroke="#000000" stroke-width="1"/>
		<text x="1386" y="1851.6" fill="#000000" font-family="Trebuchet MS" font-size="14">TAGGED</text>
	</g>
	<text x="1418" y="1825" fill="#000000" font-family="Verdana" font-size="12">1,N</text>
	<text x="1290" y="1876" fill="#000000" font-family="Verdana" font-size="12">0,N</text>
</g>

<!-- Entity FEED_ONLINE_OFFLINE__PRI_ -->
<g>
	<g>
		<rect x="698" y="9" width="190" height="26" fill="#FFFFFF" stroke="none" stroke-width="0" opacity="1"/>
		<rect x="698" y="35" width="190" height="134" fill="#FFFFFF" stroke="none" stroke-width="0" opacity="1"/>
		<rect x="698" y="9" width="190" height="160" fill="none" stroke="#000000" stroke-width="1.5" opacity="1"/>
		<line x1="698" y1="35" x2="888" y2="35" stroke="#000000" stroke-width="1"/>
	</g>
	<text x="703" y="27.6" fill="#000000" font-family="Trebuchet MS" font-size="14">FEED_ONLINE_OFFLINE (pri)</text>
	<text x="703" y="53.6" fill="#000000" font-family="Trebuchet MS" font-size="14">id</text>
	<line x1="703" y1="56" x2="716" y2="56" stroke="#000000" stroke-width="1"/>
	<text x="703" y="71.6" fill="#000000" font-family="Trebuchet MS" font-size="14">created_at</text>
	<text x="703" y="89.6" fill="#000000" font-family="Trebuchet MS" font-size="14">type</text>
	<text x="703" y="107.6" fill="#000000" font-family="Trebuchet MS" font-size="14">location</text>
	<text x="703" y="125.6" fill="#000000" font-family="Trebuchet MS" font-size="14">world_name</text>
	<text x="703" y="143.6" fill="#000000" font-family="Trebuchet MS" font-size="14">time</text>
	<text x="703" y="161.6" fill="#000000" font-family="Trebuchet MS" font-size="14">group_name</text>
</g>

<!-- Entity GAMELOG_JOIN_LEAVE__PUB_ -->
<g>
	<g>
		<rect x="180" y="230" width="198" height="26" fill="#FFFFFF" stroke="none" stroke-width="0" opacity="1"/>
		<rect x="180" y="256" width="198" height="116" fill="#FFFFFF" stroke="none" stroke-width="0" opacity="1"/>
		<rect x="180" y="230" width="198" height="142" fill="none" stroke="#000000" stroke-width="1.5" opacity="1"/>
		<line x1="180" y1="256" x2="378" y2="256" stroke="#000000" stroke-width="1"/>
	</g>
	<text x="186" y="248.6" fill="#000000" font-family="Trebuchet MS" font-size="14">GAMELOG_JOIN_LEAVE (pub)</text>
	<text x="185" y="274.6" fill="#000000" font-family="Trebuchet MS" font-size="14">id</text>
	<line x1="185" y1="277" x2="198" y2="277" stroke="#000000" stroke-width="1"/>
	<text x="185" y="292.6" fill="#000000" font-family="Trebuchet MS" font-size="14">created_at</text>
	<text x="185" y="310.6" fill="#000000" font-family="Trebuchet MS" font-size="14">type</text>
	<text x="185" y="328.6" fill="#000000" font-family="Trebuchet MS" font-size="14">display_name</text>
	<text x="185" y="346.6" fill="#000000" font-family="Trebuchet MS" font-size="14">location</text>
	<text x="185" y="364.6" fill="#000000" font-family="Trebuchet MS" font-size="14">time</text>
</g>

<!-- Entity NOTIFICATION__PRI_ -->
<g>
	<g>
		<rect x="582" y="194" width="134" height="26" fill="#FFFFFF" stroke="none" stroke-width="0" opacity="1"/>
		<rect x="582" y="220" width="134" height="188" fill="#FFFFFF" stroke="none" stroke-width="0" opacity="1"/>
		<rect x="582" y="194" width="134" height="214" fill="none" stroke="#000000" stroke-width="1.5" opacity="1"/>
		<line x1="582" y1="220" x2="716" y2="220" stroke="#000000" stroke-width="1"/>
	</g>
	<text x="587" y="212.6" fill="#000000" font-family="Trebuchet MS" font-size="14">NOTIFICATION (pri)</text>
	<text x="587" y="238.6" fill="#000000" font-family="Trebuchet MS" font-size="14">id</text>
	<line x1="587" y1="241" x2="600" y2="241" stroke="#000000" stroke-width="1"/>
	<text x="587" y="256.6" fill="#000000" font-family="Trebuchet MS" font-size="14">created_at</text>
	<text x="587" y="274.6" fill="#000000" font-family="Trebuchet MS" font-size="14">type</text>
	<text x="587" y="292.6" fill="#000000" font-family="Trebuchet MS" font-size="14">message</text>
	<text x="587" y="310.6" fill="#000000" font-family="Trebuchet MS" font-size="14">world_name</text>
	<text x="587" y="328.6" fill="#000000" font-family="Trebuchet MS" font-size="14">image_url</text>
	<text x="587" y="346.6" fill="#000000" font-family="Trebuchet MS" font-size="14">invite_message</text>
	<text x="587" y="364.6" fill="#000000" font-family="Trebuchet MS" font-size="14">request_message</text>
	<text x="587" y="382.6" fill="#000000" font-family="Trebuchet MS" font-size="14">response_message</text>
	<text x="587" y="400.6" fill="#000000" font-family="Trebuchet MS" font-size="14">expired</text>
</g>

<!-- Entity FRIEND_LOG_HISTORY__PRI_ -->
<g>
	<g>
		<rect x="874" y="212" width="186" height="26" fill="#FFFFFF" stroke="none" stroke-width="0" opacity="1"/>
		<rect x="874" y="238" width="186" height="152" fill="#FFFFFF" stroke="none" stroke-width="0" opacity="1"/>
		<rect x="874" y="212" width="186" height="178" fill="none" stroke="#000000" stroke-width="1.5" opacity="1"/>
		<line x1="874" y1="238" x2="1060" y2="238" stroke="#000000" stroke-width="1"/>
	</g>
	<text x="879" y="230.6" fill="#000000" font-family="Trebuchet MS" font-size="14">FRIEND_LOG_HISTORY (pri)</text>
	<text x="879" y="256.6" fill="#000000" font-family="Trebuchet MS" font-size="14">id</text>
	<line x1="879" y1="259" x2="892" y2="259" stroke="#000000" stroke-width="1"/>
	<text x="879" y="274.6" fill="#000000" font-family="Trebuchet MS" font-size="14">created_at</text>
	<text x="879" y="292.6" fill="#000000" font-family="Trebuchet MS" font-size="14">type</text>
	<text x="879" y="310.6" fill="#000000" font-family="Trebuchet MS" font-size="14">display_name</text>
	<text x="879" y="328.6" fill="#000000" font-family="Trebuchet MS" font-size="14">previous_display_name</text>
	<text x="879" y="346.6" fill="#000000" font-family="Trebuchet MS" font-size="14">trust_level</text>
	<text x="879" y="364.6" fill="#000000" font-family="Trebuchet MS" font-size="14">previous_trust_level</text>
	<text x="879" y="382.6" fill="#000000" font-family="Trebuchet MS" font-size="14">friend_number</text>
</g>

<!-- Entity FEED_STATUS__PRI_ -->
<g>
	<g>
		<rect x="9" y="424" width="190" height="26" fill="#FFFFFF" stroke="none" stroke-width="0" opacity="1"/>
		<rect x="9" y="450" width="190" height="116" fill="#FFFFFF" stroke="none" stroke-width="0" opacity="1"/>
		<rect x="9" y="424" width="190" height="142" fill="none" stroke="#000000" stroke-width="1.5" opacity="1"/>
		<line x1="9" y1="450" x2="199" y2="450" stroke="#000000" stroke-width="1"/>
	</g>
	<text x="44" y="442.6" fill="#000000" font-family="Trebuchet MS" font-size="14">FEED_STATUS (pri)</text>
	<text x="14" y="468.6" fill="#000000" font-family="Trebuchet MS" font-size="14">id</text>
	<line x1="14" y1="471" x2="27" y2="471" stroke="#000000" stroke-width="1"/>
	<text x="14" y="486.6" fill="#000000" font-family="Trebuchet MS" font-size="14">created_at</text>
	<text x="14" y="504.6" fill="#000000" font-family="Trebuchet MS" font-size="14">status</text>
	<text x="14" y="522.6" fill="#000000" font-family="Trebuchet MS" font-size="14">status_description</text>
	<text x="14" y="540.6" fill="#000000" font-family="Trebuchet MS" font-size="14">previous_status</text>
	<text x="14" y="558.6" fill="#000000" font-family="Trebuchet MS" font-size="14">previous_status_description</text>
</g>

<!-- Entity FEED_GPS__PRI_ -->
<g>
	<g>
		<rect x="1031" y="415" width="124" height="26" fill="#FFFFFF" stroke="none" stroke-width="0" opacity="1"/>
		<rect x="1031" y="441" width="124" height="134" fill="#FFFFFF" stroke="none" stroke-width="0" opacity="1"/>
		<rect x="1031" y="415" width="124" height="160" fill="none" stroke="#000000" stroke-width="1.5" opacity="1"/>
		<line x1="1031" y1="441" x2="1155" y2="441" stroke="#000000" stroke-width="1"/>
	</g>
	<text x="1045" y="433.6" fill="#000000" font-family="Trebuchet MS" font-size="14">FEED_GPS (pri)</text>
	<text x="1036" y="459.6" fill="#000000" font-family="Trebuchet MS" font-size="14">id</text>
	<line x1="1036" y1="462" x2="1049" y2="462" stroke="#000000" stroke-width="1"/>
	<text x="1036" y="477.6" fill="#000000" font-family="Trebuchet MS" font-size="14">created_at</text>
	<text x="1036" y="495.6" fill="#000000" font-family="Trebuchet MS" font-size="14">location</text>
	<text x="1036" y="513.6" fill="#000000" font-family="Trebuchet MS" font-size="14">world_name</text>
	<text x="1036" y="531.6" fill="#000000" font-family="Trebuchet MS" font-size="14">previous_location</text>
	<text x="1036" y="549.6" fill="#000000" font-family="Trebuchet MS" font-size="14">time</text>
	<text x="1036" y="567.6" fill="#000000" font-family="Trebuchet MS" font-size="14">group_name</text>
</g>

<!-- Entity FEED_AVATAR__PRI_ -->
<g>
	<g>
		<rect x="153" y="591" width="252" height="26" fill="#FFFFFF" stroke="none" stroke-width="0" opacity="1"/>
		<rect x="153" y="617" width="252" height="116" fill="#FFFFFF" stroke="none" stroke-width="0" opacity="1"/>
		<rect x="153" y="591" width="252" height="142" fill="none" stroke="#000000" stroke-width="1.5" opacity="1"/>
		<line x1="153" y1="617" x2="405" y2="617" stroke="#000000" stroke-width="1"/>
	</g>
	<text x="218" y="609.6" fill="#000000" font-family="Trebuchet MS" font-size="14">FEED_AVATAR (pri)</text>
	<text x="158" y="635.6" fill="#000000" font-family="Trebuchet MS" font-size="14">id</text>
	<line x1="158" y1="638" x2="171" y2="638" stroke="#000000" stroke-width="1"/>
	<text x="158" y="653.6" fill="#000000" font-family="Trebuchet MS" font-size="14">created_at</text>
	<text x="158" y="671.6" fill="#000000" font-family="Trebuchet MS" font-size="14">owner_id</text>
	<text x="158" y="689.6" fill="#000000" font-family="Trebuchet MS" font-size="14">avatar_name</text>
	<text x="158" y="707.6" fill="#000000" font-family="Trebuchet MS" font-size="14">current_avatar_image_url</text>
	<text x="158" y="725.6" fill="#000000" font-family="Trebuchet MS" font-size="14">current_avatar_thumbnail_image_url</text>
</g>

<!-- Entity USER__PRI_ -->
<g>
	<g>
		<rect x="596" y="609" width="106" height="26" fill="#FFFFFF" stroke="none" stroke-width="0" opacity="1"/>
		<rect x="596" y="635" width="106" height="80" fill="#FFFFFF" stroke="none" stroke-width="0" opacity="1"/>
		<rect x="596" y="609" width="106" height="106" fill="none" stroke="#000000" stroke-width="1.5" opacity="1"/>
		<line x1="596" y1="635" x2="702" y2="635" stroke="#000000" stroke-width="1"/>
	</g>
	<text x="616" y="627.6" fill="#000000" font-family="Trebuchet MS" font-size="14">USER (pri)</text>
	<text x="601" y="653.6" fill="#000000" font-family="Trebuchet MS" font-size="14">user_id</text>
	<line x1="601" y1="656" x2="649" y2="656" stroke="#000000" stroke-width="1"/>
	<text x="601" y="671.6" fill="#000000" font-family="Trebuchet MS" font-size="14">display_name</text>
	<text x="601" y="689.6" fill="#000000" font-family="Trebuchet MS" font-size="14">trust_level</text>
	<text x="601" y="707.6" fill="#000000" font-family="Trebuchet MS" font-size="14">friend_number</text>
</g>

<!-- Entity FAVORITE_FRIEND__PUB_ -->
<g>
	<g>
		<rect x="884" y="618" width="166" height="26" fill="#FFFFFF" stroke="none" stroke-width="0" opacity="1"/>
		<rect x="884" y="644" width="166" height="62" fill="#FFFFFF" stroke="none" stroke-width="0" opacity="1"/>
		<rect x="884" y="618" width="166" height="88" fill="none" stroke="#000000" stroke-width="1.5" opacity="1"/>
		<line x1="884" y1="644" x2="1050" y2="644" stroke="#000000" stroke-width="1"/>
	</g>
	<text x="890" y="636.6" fill="#000000" font-family="Trebuchet MS" font-size="14">FAVORITE_FRIEND (pub)</text>
	<text x="889" y="662.6" fill="#000000" font-family="Trebuchet MS" font-size="14">id</text>
	<line x1="889" y1="665" x2="902" y2="665" stroke="#000000" stroke-width="1"/>
	<text x="889" y="680.6" fill="#000000" font-family="Trebuchet MS" font-size="14">created_at</text>
	<text x="889" y="698.6" fill="#000000" font-family="Trebuchet MS" font-size="14">group_name</text>
</g>

<!-- Entity ACTIVITY_SESSION__PRI_ -->
<g>
	<g>
		<rect x="23" y="758" width="162" height="26" fill="#FFFFFF" stroke="none" stroke-width="0" opacity="1"/>
		<rect x="23" y="784" width="162" height="98" fill="#FFFFFF" stroke="none" stroke-width="0" opacity="1"/>
		<rect x="23" y="758" width="162" height="124" fill="none" stroke="#000000" stroke-width="1.5" opacity="1"/>
		<line x1="23" y1="784" x2="185" y2="784" stroke="#000000" stroke-width="1"/>
	</g>
	<text x="29" y="776.6" fill="#000000" font-family="Trebuchet MS" font-size="14">ACTIVITY_SESSION (pri)</text>
	<text x="28" y="802.6" fill="#000000" font-family="Trebuchet MS" font-size="14">session_id</text>
	<line x1="28" y1="805" x2="94" y2="805" stroke="#000000" stroke-width="1"/>
	<text x="28" y="820.6" fill="#000000" font-family="Trebuchet MS" font-size="14">start_at</text>
	<text x="28" y="838.6" fill="#000000" font-family="Trebuchet MS" font-size="14">end_at</text>
	<text x="28" y="856.6" fill="#000000" font-family="Trebuchet MS" font-size="14">is_open_tail</text>
	<text x="28" y="874.6" fill="#000000" font-family="Trebuchet MS" font-size="14">source_revision</text>
</g>

<!-- Entity MODERATION__PRI_ -->
<g>
	<g>
		<rect x="729" y="767" width="128" height="26" fill="#FFFFFF" stroke="none" stroke-width="0" opacity="1"/>
		<rect x="729" y="793" width="128" height="80" fill="#FFFFFF" stroke="none" stroke-width="0" opacity="1"/>
		<rect x="729" y="767" width="128" height="106" fill="none" stroke="#000000" stroke-width="1.5" opacity="1"/>
		<line x1="729" y1="793" x2="857" y2="793" stroke="#000000" stroke-width="1"/>
	</g>
	<text x="734" y="785.6" fill="#000000" font-family="Trebuchet MS" font-size="14">MODERATION (pri)</text>
	<text x="734" y="811.6" fill="#000000" font-family="Trebuchet MS" font-size="14">updated_at</text>
	<line x1="734" y1="814" x2="809" y2="814" stroke="#000000" stroke-width="1"/>
	<text x="734" y="829.6" fill="#000000" font-family="Trebuchet MS" font-size="14">display_name</text>
	<text x="734" y="847.6" fill="#000000" font-family="Trebuchet MS" font-size="14">block</text>
	<text x="734" y="865.6" fill="#000000" font-family="Trebuchet MS" font-size="14">mute</text>
</g>

<!-- Entity FEED_BIO__PRI_ -->
<g>
	<g>
		<rect x="226" y="871" width="106" height="26" fill="#FFFFFF" stroke="none" stroke-width="0" opacity="1"/>
		<rect x="226" y="897" width="106" height="80" fill="#FFFFFF" stroke="none" stroke-width="0" opacity="1"/>
		<rect x="226" y="871" width="106" height="106" fill="none" stroke="#000000" stroke-width="1.5" opacity="1"/>
		<line x1="226" y1="897" x2="332" y2="897" stroke="#000000" stroke-width="1"/>
	</g>
	<text x="232" y="889.6" fill="#000000" font-family="Trebuchet MS" font-size="14">FEED_BIO (pri)</text>
	<text x="231" y="915.6" fill="#000000" font-family="Trebuchet MS" font-size="14">id</text>
	<line x1="231" y1="918" x2="244" y2="918" stroke="#000000" stroke-width="1"/>
	<text x="231" y="933.6" fill="#000000" font-family="Trebuchet MS" font-size="14">created_at</text>
	<text x="231" y="951.6" fill="#000000" font-family="Trebuchet MS" font-size="14">bio</text>
	<text x="231" y="969.6" fill="#000000" font-family="Trebuchet MS" font-size="14">previous_bio</text>
</g>

<!-- Entity MEMO__PUB_ -->
<g>
	<g>
		<rect x="923" y="889" width="88" height="26" fill="#FFFFFF" stroke="none" stroke-width="0" opacity="1"/>
		<rect x="923" y="915" width="88" height="44" fill="#FFFFFF" stroke="none" stroke-width="0" opacity="1"/>
		<rect x="923" y="889" width="88" height="70" fill="none" stroke="#000000" stroke-width="1.5" opacity="1"/>
		<line x1="923" y1="915" x2="1011" y2="915" stroke="#000000" stroke-width="1"/>
	</g>
	<text x="928" y="907.6" fill="#000000" font-family="Trebuchet MS" font-size="14">MEMO (pub)</text>
	<text x="928" y="933.6" fill="#000000" font-family="Trebuchet MS" font-size="14">edited_at</text>
	<line x1="928" y1="936" x2="991" y2="936" stroke="#000000" stroke-width="1"/>
	<text x="928" y="951.6" fill="#000000" font-family="Trebuchet MS" font-size="14">memo</text>
</g>

<!-- Entity NOTES__PRI_ -->
<g>
	<g>
		<rect x="443" y="975" width="86" height="26" fill="#FFFFFF" stroke="none" stroke-width="0" opacity="1"/>
		<rect x="443" y="1001" width="86" height="44" fill="#FFFFFF" stroke="none" stroke-width="0" opacity="1"/>
		<rect x="443" y="975" width="86" height="70" fill="none" stroke="#000000" stroke-width="1.5" opacity="1"/>
		<line x1="443" y1="1001" x2="529" y2="1001" stroke="#000000" stroke-width="1"/>
	</g>
	<text x="449" y="993.6" fill="#000000" font-family="Trebuchet MS" font-size="14">NOTES (pri)</text>
	<text x="448" y="1019.6" fill="#000000" font-family="Trebuchet MS" font-size="14">note</text>
	<line x1="448" y1="1022" x2="478" y2="1022" stroke="#000000" stroke-width="1"/>
	<text x="448" y="1037.6" fill="#000000" font-family="Trebuchet MS" font-size="14">created_at</text>
</g>

<!-- Entity FAVORITE_WORLD__PUB_ -->
<g>
	<g>
		<rect x="1135" y="966" width="166" height="26" fill="#FFFFFF" stroke="none" stroke-width="0" opacity="1"/>
		<rect x="1135" y="992" width="166" height="62" fill="#FFFFFF" stroke="none" stroke-width="0" opacity="1"/>
		<rect x="1135" y="966" width="166" height="88" fill="none" stroke="#000000" stroke-width="1.5" opacity="1"/>
		<line x1="1135" y1="992" x2="1301" y2="992" stroke="#000000" stroke-width="1"/>
	</g>
	<text x="1140" y="984.6" fill="#000000" font-family="Trebuchet MS" font-size="14">FAVORITE_WORLD (pub)</text>
	<text x="1140" y="1010.6" fill="#000000" font-family="Trebuchet MS" font-size="14">id</text>
	<line x1="1140" y1="1013" x2="1153" y2="1013" stroke="#000000" stroke-width="1"/>
	<text x="1140" y="1028.6" fill="#000000" font-family="Trebuchet MS" font-size="14">created_at</text>
	<text x="1140" y="1046.6" fill="#000000" font-family="Trebuchet MS" font-size="14">group_name</text>
</g>

<!-- Entity WORLD__PUB_ -->
<g>
	<g>
		<rect x="1339" y="1061" width="148" height="26" fill="#FFFFFF" stroke="none" stroke-width="0" opacity="1"/>
		<rect x="1339" y="1087" width="148" height="170" fill="#FFFFFF" stroke="none" stroke-width="0" opacity="1"/>
		<rect x="1339" y="1061" width="148" height="196" fill="none" stroke="#000000" stroke-width="1.5" opacity="1"/>
		<line x1="1339" y1="1087" x2="1487" y2="1087" stroke="#000000" stroke-width="1"/>
	</g>
	<text x="1370" y="1079.6" fill="#000000" font-family="Trebuchet MS" font-size="14">WORLD (pub)</text>
	<text x="1344" y="1105.6" fill="#000000" font-family="Trebuchet MS" font-size="14">world_id</text>
	<line x1="1344" y1="1108" x2="1401" y2="1108" stroke="#000000" stroke-width="1"/>
	<text x="1344" y="1123.6" fill="#000000" font-family="Trebuchet MS" font-size="14">name</text>
	<text x="1344" y="1141.6" fill="#000000" font-family="Trebuchet MS" font-size="14">description</text>
	<text x="1344" y="1159.6" fill="#000000" font-family="Trebuchet MS" font-size="14">author_id</text>
	<text x="1344" y="1177.6" fill="#000000" font-family="Trebuchet MS" font-size="14">author_name</text>
	<text x="1344" y="1195.6" fill="#000000" font-family="Trebuchet MS" font-size="14">image_url</text>
	<text x="1344" y="1213.6" fill="#000000" font-family="Trebuchet MS" font-size="14">release_status</text>
	<text x="1344" y="1231.6" fill="#000000" font-family="Trebuchet MS" font-size="14">thumbnail_image_url</text>
	<text x="1344" y="1249.6" fill="#000000" font-family="Trebuchet MS" font-size="14">version</text>
</g>

<!-- Entity GAMELOG_LOCATION__PUB_ -->
<g>
	<g>
		<rect x="1125" y="1282" width="186" height="26" fill="#FFFFFF" stroke="none" stroke-width="0" opacity="1"/>
		<rect x="1125" y="1308" width="186" height="98" fill="#FFFFFF" stroke="none" stroke-width="0" opacity="1"/>
		<rect x="1125" y="1282" width="186" height="124" fill="none" stroke="#000000" stroke-width="1.5" opacity="1"/>
		<line x1="1125" y1="1308" x2="1311" y2="1308" stroke="#000000" stroke-width="1"/>
	</g>
	<text x="1131" y="1300.6" fill="#000000" font-family="Trebuchet MS" font-size="14">GAMELOG_LOCATION (pub)</text>
	<text x="1130" y="1326.6" fill="#000000" font-family="Trebuchet MS" font-size="14">id</text>
	<line x1="1130" y1="1329" x2="1143" y2="1329" stroke="#000000" stroke-width="1"/>
	<text x="1130" y="1344.6" fill="#000000" font-family="Trebuchet MS" font-size="14">created_at</text>
	<text x="1130" y="1362.6" fill="#000000" font-family="Trebuchet MS" font-size="14">location</text>
	<text x="1130" y="1380.6" fill="#000000" font-family="Trebuchet MS" font-size="14">time</text>
	<text x="1130" y="1398.6" fill="#000000" font-family="Trebuchet MS" font-size="14">group_name</text>
</g>

<!-- Entity WORLD_MEMO__PUB_ -->
<g>
	<g>
		<rect x="1342" y="1431" width="142" height="26" fill="#FFFFFF" stroke="none" stroke-width="0" opacity="1"/>
		<rect x="1342" y="1457" width="142" height="44" fill="#FFFFFF" stroke="none" stroke-width="0" opacity="1"/>
		<rect x="1342" y="1431" width="142" height="70" fill="none" stroke="#000000" stroke-width="1.5" opacity="1"/>
		<line x1="1342" y1="1457" x2="1484" y2="1457" stroke="#000000" stroke-width="1"/>
	</g>
	<text x="1348" y="1449.6" fill="#000000" font-family="Trebuchet MS" font-size="14">WORLD_MEMO (pub)</text>
	<text x="1347" y="1475.6" fill="#000000" font-family="Trebuchet MS" font-size="14">edited_at</text>
	<line x1="1347" y1="1478" x2="1410" y2="1478" stroke="#000000" stroke-width="1"/>
	<text x="1347" y="1493.6" fill="#000000" font-family="Trebuchet MS" font-size="14">memo</text>
</g>

<!-- Entity MUTUAL_GRAPH_FRIEND__PRI_ -->
<g>
	<g>
		<rect x="1743" y="1440" width="202" height="26" fill="#FFFFFF" stroke="none" stroke-width="0" opacity="1"/>
		<rect x="1743" y="1466" width="202" height="26" fill="#FFFFFF" stroke="none" stroke-width="0" opacity="1"/>
		<rect x="1743" y="1440" width="202" height="52" fill="none" stroke="#000000" stroke-width="1.5" opacity="1"/>
		<line x1="1743" y1="1466" x2="1945" y2="1466" stroke="#000000" stroke-width="1"/>
	</g>
	<text x="1749" y="1458.6" fill="#000000" font-family="Trebuchet MS" font-size="14">MUTUAL_GRAPH_FRIEND (pri)</text>
	<text x="1748" y="1484.6" fill="#000000" font-family="Trebuchet MS" font-size="14">friend_id</text>
	<line x1="1748" y1="1487" x2="1807" y2="1487" stroke="#000000" stroke-width="1"/>
</g>

<!-- Entity FAVORITE_AVATAR__PUB_ -->
<g>
	<g>
		<rect x="1133" y="1508" width="170" height="26" fill="#FFFFFF" stroke="none" stroke-width="0" opacity="1"/>
		<rect x="1133" y="1534" width="170" height="62" fill="#FFFFFF" stroke="none" stroke-width="0" opacity="1"/>
		<rect x="1133" y="1508" width="170" height="88" fill="none" stroke="#000000" stroke-width="1.5" opacity="1"/>
		<line x1="1133" y1="1534" x2="1303" y2="1534" stroke="#000000" stroke-width="1"/>
	</g>
	<text x="1138" y="1526.6" fill="#000000" font-family="Trebuchet MS" font-size="14">FAVORITE_AVATAR (pub)</text>
	<text x="1138" y="1552.6" fill="#000000" font-family="Trebuchet MS" font-size="14">id</text>
	<line x1="1138" y1="1555" x2="1151" y2="1555" stroke="#000000" stroke-width="1"/>
	<text x="1138" y="1570.6" fill="#000000" font-family="Trebuchet MS" font-size="14">created_at</text>
	<text x="1138" y="1588.6" fill="#000000" font-family="Trebuchet MS" font-size="14">group_name</text>
</g>

<!-- Entity AVATAR_MEMO__PUB_ -->
<g>
	<g>
		<rect x="1517" y="1517" width="146" height="26" fill="#FFFFFF" stroke="none" stroke-width="0" opacity="1"/>
		<rect x="1517" y="1543" width="146" height="44" fill="#FFFFFF" stroke="none" stroke-width="0" opacity="1"/>
		<rect x="1517" y="1517" width="146" height="70" fill="none" stroke="#000000" stroke-width="1.5" opacity="1"/>
		<line x1="1517" y1="1543" x2="1663" y2="1543" stroke="#000000" stroke-width="1"/>
	</g>
	<text x="1522" y="1535.6" fill="#000000" font-family="Trebuchet MS" font-size="14">AVATAR_MEMO (pub)</text>
	<text x="1522" y="1561.6" fill="#000000" font-family="Trebuchet MS" font-size="14">edited_at</text>
	<line x1="1522" y1="1564" x2="1585" y2="1564" stroke="#000000" stroke-width="1"/>
	<text x="1522" y="1579.6" fill="#000000" font-family="Trebuchet MS" font-size="14">memo</text>
</g>

<!-- Entity MUTUAL_GRAPH_FRIEND_OLD__PRI_ -->
<g>
	<g>
		<rect x="1727" y="1517" width="234" height="26" fill="#FFFFFF" stroke="none" stroke-width="0" opacity="1"/>
		<rect x="1727" y="1543" width="234" height="44" fill="#FFFFFF" stroke="none" stroke-width="0" opacity="1"/>
		<rect x="1727" y="1517" width="234" height="70" fill="none" stroke="#000000" stroke-width="1.5" opacity="1"/>
		<line x1="1727" y1="1543" x2="1961" y2="1543" stroke="#000000" stroke-width="1"/>
	</g>
	<text x="1732" y="1535.6" fill="#000000" font-family="Trebuchet MS" font-size="14">MUTUAL_GRAPH_FRIEND_OLD (pri)</text>
	<text x="1732" y="1561.6" fill="#000000" font-family="Trebuchet MS" font-size="14">friend_id</text>
	<line x1="1732" y1="1564" x2="1791" y2="1564" stroke="#000000" stroke-width="1"/>
	<text x="1732" y="1579.6" fill="#000000" font-family="Trebuchet MS" font-size="14">last_updated</text>
</g>

<!-- Entity AVATAR__PUB_ -->
<g>
	<g>
		<rect x="1339" y="1612" width="148" height="26" fill="#FFFFFF" stroke="none" stroke-width="0" opacity="1"/>
		<rect x="1339" y="1638" width="148" height="170" fill="#FFFFFF" stroke="none" stroke-width="0" opacity="1"/>
		<rect x="1339" y="1612" width="148" height="196" fill="none" stroke="#000000" stroke-width="1.5" opacity="1"/>
		<line x1="1339" y1="1638" x2="1487" y2="1638" stroke="#000000" stroke-width="1"/>
	</g>
	<text x="1368" y="1630.6" fill="#000000" font-family="Trebuchet MS" font-size="14">AVATAR (pub)</text>
	<text x="1344" y="1656.6" fill="#000000" font-family="Trebuchet MS" font-size="14">avatar_id</text>
	<line x1="1344" y1="1659" x2="1406" y2="1659" stroke="#000000" stroke-width="1"/>
	<text x="1344" y="1674.6" fill="#000000" font-family="Trebuchet MS" font-size="14">name</text>
	<text x="1344" y="1692.6" fill="#000000" font-family="Trebuchet MS" font-size="14">author_id</text>
	<text x="1344" y="1710.6" fill="#000000" font-family="Trebuchet MS" font-size="14">author_name</text>
	<text x="1344" y="1728.6" fill="#000000" font-family="Trebuchet MS" font-size="14">description</text>
	<text x="1344" y="1746.6" fill="#000000" font-family="Trebuchet MS" font-size="14">image_url</text>
	<text x="1344" y="1764.6" fill="#000000" font-family="Trebuchet MS" font-size="14">release_status</text>
	<text x="1344" y="1782.6" fill="#000000" font-family="Trebuchet MS" font-size="14">thumbnail_image_url</text>
	<text x="1344" y="1800.6" fill="#000000" font-family="Trebuchet MS" font-size="14">version</text>
</g>

<!-- Entity AVATAR_TAG__PUB_ -->
<g>
	<g>
		<rect x="1151" y="1824" width="134" height="26" fill="#FFFFFF" stroke="none" stroke-width="0" opacity="1"/>
		<rect x="1151" y="1850" width="134" height="44" fill="#FFFFFF" stroke="none" stroke-width="0" opacity="1"/>
		<rect x="1151" y="1824" width="134" height="70" fill="none" stroke="#000000" stroke-width="1.5" opacity="1"/>
		<line x1="1151" y1="1850" x2="1285" y2="1850" stroke="#000000" stroke-width="1"/>
	</g>
	<text x="1156" y="1842.6" fill="#000000" font-family="Trebuchet MS" font-size="14">AVATAR_TAG (pub)</text>
	<text x="1156" y="1868.6" fill="#000000" font-family="Trebuchet MS" font-size="14">tag</text>
	<line x1="1156" y1="1871" x2="1178" y2="1871" stroke="#000000" stroke-width="1"/>
	<text x="1156" y="1886.6" fill="#000000" font-family="Trebuchet MS" font-size="14">color</text>
</g>
</svg>