<?xml version="1.0" encoding="utf-8"?>
<!-- Generated by Mocodo 4.3.3 -->
<svg width="1992" height="1868" viewBox="0 0 1992 1868" xmlns="http://www.w3.org/2000/svg">
<rect x="0" y="0" width="1992" height="1868" fill="#FFFFFF" stroke="none" stroke-width="0"/>

<!-- Association SENT_FROM -->
<g>
	<line x1="647" y1="662" x2="486" y2="301" stroke="#000000" stroke-width="1"/>
	<line x1="647" y1="301" x2="486" y2="301" stroke="#000000" stroke-width="1"/>
	<g>
		<path d="M536 275 a14 14 90 0 1 14 14 V301 h-128 V289 a14 14 90 0 1 14 -14" fill="#FFFFFF" stroke="#FFFFFF" stroke-width="0"/>
		<path d="M550 301 v12 a14 14 90 0 1 -14 14 H436 a14 14 90 0 1 -14 -14 V301 H128" fill="#FFFFFF" stroke="#FFFFFF" stroke-width="0"/>
		<rect x="422" y="275" width="128" height="52" fill="none" rx="14" stroke="#000000" stroke-width="1.5"/>
		<line x1="422" y1="301" x2="550" y2="301" stroke="#000000" stroke-width="1"/>
		<text x="448" y="293.6" fill="#000000" font-family="Trebuchet MS" font-size="14">SENT_FROM</text>
		<text x="429" y="319.6" fill="#000000" font-family="Trebuchet MS" font-size="14">sender_username</text>
	</g>
	<text x="624.87" y="601" fill="#000000" font-family="Verdana" font-size="12">0,N</text>
	<text x="556" y="318" fill="#000000" font-family="Verdana" font-size="12">1,1</text>
</g>

<!-- Association IS_ONLINE -->
<g>
	<line x1="647" y1="662" x2="791" y2="301" stroke="#000000" stroke-width="1"/>
	<line x1="791" y1="89" x2="791" y2="301" stroke="#000000" stroke-width="1"/>
	<g>
		<path d="M817 275 a14 14 90 0 1 14 14 V301 h-80 V289 a14 14 90 0 1 14 -14" fill="#FFFFFF" stroke="#FFFFFF" stroke-width="0"/>
		<path d="M831 301 v12 a14 14 90 0 1 -14 14 H765 a14 14 90 0 1 -14 -14 V301 H80" fill="#FFFFFF" stroke="#FFFFFF" stroke-width="0"/>
		<rect x="751" y="275" width="80" height="52" fill="none" rx="14" stroke="#000000" stroke-width="1.5"/>
		<line x1="751" y1="301" x2="831" y2="301" stroke="#000000" stroke-width="1"/>
		<text x="758" y="293.6" fill="#000000" font-family="Trebuchet MS" font-size="14">IS_ONLINE</text>
	</g>
	<text x="644.26" y="601" fill="#000000" font-family="Verdana" font-size="12">1,N</text>
	<text x="796" y="186" fill="#000000" font-family="Verdana" font-size="12">0,N</text>
</g>

<!-- Association HAS_STATUS -->
<g>
	<line x1="647" y1="662" x2="279" y2="495" stroke="#000000" stroke-width="1"/>
	<line x1="104" y1="495" x2="279" y2="495" stroke="#000000" stroke-width="1"/>
	<g>
		<path d="M313 469 a14 14 90 0 1 14 14 V495 h-96 V483 a14 14 90 0 1 14 -14" fill="#FFFFFF" stroke="#FFFFFF" stroke-width="0"/>
		<path d="M327 495 v12 a14 14 90 0 1 -14 14 H245 a14 14 90 0 1 -14 -14 V495 H96" fill="#FFFFFF" stroke="#FFFFFF" stroke-width="0"/>
		<rect x="231" y="469" width="96" height="52" fill="none" rx="14" stroke="#000000" stroke-width="1.5"/>
		<line x1="231" y1="495" x2="327" y2="495" stroke="#000000" stroke-width="1"/>
		<text x="238" y="487.6" fill="#000000" font-family="Trebuchet MS" font-size="14">HAS_STATUS</text>
	</g>
	<text x="567" y="651.39" fill="#000000" font-family="Verdana" font-size="12">1,N</text>
	<text x="204" y="512" fill="#000000" font-family="Verdana" font-size="12">0,N</text>
</g>

<!-- Association JOIN_BY -->
<g>
	<line x1="647" y1="662" x2="486" y2="495" stroke="#000000" stroke-width="1"/>
	<line x1="279" y1="301" x2="486" y2="495" stroke="#000000" stroke-width="1"/>
	<g>
		<path d="M506 469 a14 14 90 0 1 14 14 V495 h-68 V483 a14 14 90 0 1 14 -14" fill="#FFFFFF" stroke="#FFFFFF" stroke-width="0"/>
		<path d="M520 495 v12 a14 14 90 0 1 -14 14 H466 a14 14 90 0 1 -14 -14 V495 H68" fill="#FFFFFF" stroke="#FFFFFF" stroke-width="0"/>
		<rect x="452" y="469" width="68" height="52" fill="none" rx="14" stroke="#000000" stroke-width="1.5"/>
		<line x1="452" y1="495" x2="520" y2="495" stroke="#000000" stroke-width="1"/>
		<text x="459" y="487.6" fill="#000000" font-family="Trebuchet MS" font-size="14">JOIN_BY</text>
	</g>
	<text x="594.02" y="601" fill="#000000" font-family="Verdana" font-size="12">1,N</text>
	<text x="334.5" y="389" fill="#000000" font-family="Verdana" font-size="12">0,N</text>
</g>

<!-- Association SENT_TO -->
<g>
	<line x1="647" y1="662" x2="647" y2="495" stroke="#000000" stroke-width="1"/>
	<line x1="647" y1="301" x2="647" y2="495" stroke="#000000" stroke-width="1"/>
	<g>
		<path d="M694 469 a14 14 90 0 1 14 14 V495 h-122 V483 a14 14 90 0 1 14 -14" fill="#FFFFFF" stroke="#FFFFFF" stroke-width="0"/>
		<path d="M708 495 v12 a14 14 90 0 1 -14 14 H600 a14 14 90 0 1 -14 -14 V495 H122" fill="#FFFFFF" stroke="#FFFFFF" stroke-width="0"/>
		<rect x="586" y="469" width="122" height="52" fill="none" rx="14" stroke="#000000" stroke-width="1.5"/>
		<line x1="586" y1="495" x2="708" y2="495" stroke="#000000" stroke-width="1"/>
		<text x="618" y="487.6" fill="#000000" font-family="Trebuchet MS" font-size="14">SENT_TO</text>
		<text x="593" y="513.6" fill="#000000" font-family="Trebuchet MS" font-size="14">receiver_user_id</text>
	</g>
	<text x="652" y="601" fill="#000000" font-family="Verdana" font-size="12">0,N</text>
	<text x="652" y="425" fill="#000000" font-family="Verdana" font-size="12">1,1</text>
</g>

<!-- Association LOGGED -->
<g>
	<line x1="647" y1="662" x2="791" y2="495" stroke="#000000" stroke-width="1"/>
	<line x1="945" y1="301" x2="791" y2="495" stroke="#000000" stroke-width="1"/>
	<g>
		<path d="M811 469 a14 14 90 0 1 14 14 V495 h-68 V483 a14 14 90 0 1 14 -14" fill="#FFFFFF" stroke="#FFFFFF" stroke-width="0"/>
		<path d="M825 495 v12 a14 14 90 0 1 -14 14 H771 a14 14 90 0 1 -14 -14 V495 H68" fill="#FFFFFF" stroke="#FFFFFF" stroke-width="0"/>
		<rect x="757" y="469" width="68" height="52" fill="none" rx="14" stroke="#000000" stroke-width="1.5"/>
		<line x1="757" y1="495" x2="825" y2="495" stroke="#000000" stroke-width="1"/>
		<text x="764" y="487.6" fill="#000000" font-family="Trebuchet MS" font-size="14">LOGGED</text>
	</g>
	<text x="672.03" y="601" fill="#000000" font-family="Verdana" font-size="12">1,N</text>
	<text x="873.42" y="407" fill="#000000" font-family="Verdana" font-size="12">0,N</text>
</g>

<!-- Association POSTED -->
<g>
	<line x1="647" y1="662" x2="945" y2="495" stroke="#000000" stroke-width="1"/>
	<line x1="1071" y1="495" x2="945" y2="495" stroke="#000000" stroke-width="1"/>
	<g>
		<path d="M963 469 a14 14 90 0 1 14 14 V495 h-64 V483 a14 14 90 0 1 14 -14" fill="#FFFFFF" stroke="#FFFFFF" stroke-width="0"/>
		<path d="M977 495 v12 a14 14 90 0 1 -14 14 H927 a14 14 90 0 1 -14 -14 V495 H64" fill="#FFFFFF" stroke="#FFFFFF" stroke-width="0"/>
		<rect x="913" y="469" width="64" height="52" fill="none" rx="14" stroke="#000000" stroke-width="1.5"/>
		<line x1="913" y1="495" x2="977" y2="495" stroke="#000000" stroke-width="1"/>
		<text x="920" y="487.6" fill="#000000" font-family="Trebuchet MS" font-size="14">POSTED</text>
	</g>
	<text x="705" y="644.94" fill="#000000" font-family="Verdana" font-size="12">1,N</text>
	<text x="982" y="512" fill="#000000" font-family="Verdana" font-size="12">0,N</text>
</g>

<!-- Association HAS_AVATAR -->
<g>
	<line x1="647" y1="662" x2="486" y2="662" stroke="#000000" stroke-width="1"/>
	<line x1="279" y1="662" x2="486" y2="662" stroke="#000000" stroke-width="1"/>
	<g>
		<path d="M521 636 a14 14 90 0 1 14 14 V662 h-98 V650 a14 14 90 0 1 14 -14" fill="#FFFFFF" stroke="#FFFFFF" stroke-width="0"/>
		<path d="M535 662 v12 a14 14 90 0 1 -14 14 H451 a14 14 90 0 1 -14 -14 V662 H98" fill="#FFFFFF" stroke="#FFFFFF" stroke-width="0"/>
		<rect x="437" y="636" width="98" height="52" fill="none" rx="14" stroke="#000000" stroke-width="1.5"/>
		<line x1="437" y1="662" x2="535" y2="662" stroke="#000000" stroke-width="1"/>
		<text x="444" y="654.6" fill="#000000" font-family="Trebuchet MS" font-size="14">HAS_AVATAR</text>
	</g>
	<text x="567" y="679" fill="#000000" font-family="Verdana" font-size="12">1,N</text>
	<text x="410" y="679" fill="#000000" font-family="Verdana" font-size="12">0,N</text>
</g>

<!-- Association FAV_FRIEND_OF -->
<g>
	<line x1="647" y1="662" x2="791" y2="662" stroke="#000000" stroke-width="1"/>
	<line x1="945" y1="662" x2="791" y2="662" stroke="#000000" stroke-width="1"/>
	<g>
		<path d="M836 636 a14 14 90 0 1 14 14 V662 h-118 V650 a14 14 90 0 1 14 -14" fill="#FFFFFF" stroke="#FFFFFF" stroke-width="0"/>
		<path d="M850 662 v12 a14 14 90 0 1 -14 14 H746 a14 14 90 0 1 -14 -14 V662 H118" fill="#FFFFFF" stroke="#FFFFFF" stroke-width="0"/>
		<rect x="732" y="636" width="118" height="52" fill="none" rx="14" stroke="#000000" stroke-width="1.5"/>
		<line x1="732" y1="662" x2="850" y2="662" stroke="#000000" stroke-width="1"/>
		<text x="740" y="654.6" fill="#000000" font-family="Trebuchet MS" font-size="14">FAV_FRIEND_OF</text>
	</g>
	<text x="705" y="679" fill="#000000" font-family="Verdana" font-size="12">1,N</text>
	<text x="855" y="679" fill="#000000" font-family="Verdana" font-size="12">0,N</text>
</g>

<!-- Association SESSION_FOR -->
<g>
	<line x1="104" y1="820" x2="279" y2="820" stroke="#000000" stroke-width="1"/>
	<line x1="647" y1="662" x2="279" y2="820" stroke="#000000" stroke-width="1"/>
	<g>
		<path d="M315 794 a14 14 90 0 1 14 14 V820 h-100 V808 a14 14 90 0 1 14 -14" fill="#FFFFFF" stroke="#FFFFFF" stroke-width="0"/>
		<path d="M329 820 v12 a14 14 90 0 1 -14 14 H243 a14 14 90 0 1 -14 -14 V820 H100" fill="#FFFFFF" stroke="#FFFFFF" stroke-width="0"/>
		<rect x="229" y="794" width="100" height="52" fill="none" rx="14" stroke="#000000" stroke-width="1.5"/>
		<line x1="229" y1="820" x2="329" y2="820" stroke="#000000" stroke-width="1"/>
		<text x="237" y="812.6" fill="#000000" font-family="Trebuchet MS" font-size="14">SESSION_FOR</text>
	</g>
	<text x="173" y="837" fill="#000000" font-family="Verdana" font-size="12">1,1</text>
	<text x="567" y="680.12" fill="#000000" font-family="Verdana" font-size="12">0,N</text>
</g>

<!-- Association HAS_BIO -->
<g>
	<line x1="647" y1="662" x2="486" y2="820" stroke="#000000" stroke-width="1"/>
	<line x1="279" y1="924" x2="486" y2="820" stroke="#000000" stroke-width="1"/>
	<g>
		<path d="M507 794 a14 14 90 0 1 14 14 V820 h-70 V808 a14 14 90 0 1 14 -14" fill="#FFFFFF" stroke="#FFFFFF" stroke-width="0"/>
		<path d="M521 820 v12 a14 14 90 0 1 -14 14 H465 a14 14 90 0 1 -14 -14 V820 H70" fill="#FFFFFF" stroke="#FFFFFF" stroke-width="0"/>
		<rect x="451" y="794" width="70" height="52" fill="none" rx="14" stroke="#000000" stroke-width="1.5"/>
		<line x1="451" y1="820" x2="521" y2="820" stroke="#000000" stroke-width="1"/>
		<text x="459" y="812.6" fill="#000000" font-family="Trebuchet MS" font-size="14">HAS_BIO</text>
	</g>
	<text x="567" y="712.99" fill="#000000" font-family="Verdana" font-size="12">1,N</text>
	<text x="330" y="913.96" fill="#000000" font-family="Verdana" font-size="12">0,N</text>
</g>

<!-- Association MOD_FOR -->
<g>
	<line x1="791" y1="820" x2="647" y2="820" stroke="#000000" stroke-width="1"/>
	<line x1="647" y1="662" x2="647" y2="820" stroke="#000000" stroke-width="1"/>
	<g>
		<path d="M672 794 a14 14 90 0 1 14 14 V820 h-78 V808 a14 14 90 0 1 14 -14" fill="#FFFFFF" stroke="#FFFFFF" stroke-width="0"/>
		<path d="M686 820 v12 a14 14 90 0 1 -14 14 H622 a14 14 90 0 1 -14 -14 V820 H78" fill="#FFFFFF" stroke="#FFFFFF" stroke-width="0"/>
		<rect x="608" y="794" width="78" height="52" fill="none" rx="14" stroke="#000000" stroke-width="1.5"/>
		<line x1="608" y1="820" x2="686" y2="820" stroke="#000000" stroke-width="1"/>
		<text x="616" y="812.6" fill="#000000" font-family="Trebuchet MS" font-size="14">MOD_FOR</text>
	</g>
	<text x="715" y="837" fill="#000000" font-family="Verdana" font-size="12">1,1</text>
	<text x="652" y="732" fill="#000000" font-family="Verdana" font-size="12">0,N</text>
</g>

<!-- Association MEMO_FOR_USER -->
<g>
	<line x1="945" y1="924" x2="945" y2="820" stroke="#000000" stroke-width="1"/>
	<line x1="647" y1="662" x2="945" y2="820" stroke="#000000" stroke-width="1"/>
	<g>
		<path d="M994 794 a14 14 90 0 1 14 14 V820 h-126 V808 a14 14 90 0 1 14 -14" fill="#FFFFFF" stroke="#FFFFFF" stroke-width="0"/>
		<path d="M1008 820 v12 a14 14 90 0 1 -14 14 H896 a14 14 90 0 1 -14 -14 V820 H126" fill="#FFFFFF" stroke="#FFFFFF" stroke-width="0"/>
		<rect x="882" y="794" width="126" height="52" fill="none" rx="14" stroke="#000000" stroke-width="1.5"/>
		<line x1="882" y1="820" x2="1008" y2="820" stroke="#000000" stroke-width="1"/>
		<text x="889" y="812.6" fill="#000000" font-family="Trebuchet MS" font-size="14">MEMO_FOR_USER</text>
	</g>
	<text x="950" y="881" fill="#000000" font-family="Verdana" font-size="12">1,1</text>
	<text x="705" y="686.24" fill="#000000" font-family="Verdana" font-size="12">0,N</text>
</g>

<!-- Association NOTE_FOR -->
<g>
	<line x1="486" y1="1010" x2="486" y2="924" stroke="#000000" stroke-width="1"/>
	<line x1="647" y1="662" x2="486" y2="924" stroke="#000000" stroke-width="1"/>
	<g>
		<path d="M514 898 a14 14 90 0 1 14 14 V924 h-84 V912 a14 14 90 0 1 14 -14" fill="#FFFFFF" stroke="#FFFFFF" stroke-width="0"/>
		<path d="M528 924 v12 a14 14 90 0 1 -14 14 H458 a14 14 90 0 1 -14 -14 V924 H84" fill="#FFFFFF" stroke="#FFFFFF" stroke-width="0"/>
		<rect x="444" y="898" width="84" height="52" fill="none" rx="14" stroke="#000000" stroke-width="1.5"/>
		<line x1="444" y1="924" x2="528" y2="924" stroke="#000000" stroke-width="1"/>
		<text x="452" y="916.6" fill="#000000" font-family="Trebuchet MS" font-size="14">NOTE_FOR</text>
	</g>
	<text x="491" y="967" fill="#000000" font-family="Verdana" font-size="12">1,1</text>
	<text x="614.68" y="732" fill="#000000" font-family="Verdana" font-size="12">0,N</text>
</g>

<!-- Association FAV_WORLD_OF -->
<g>
	<line x1="1351" y1="1159" x2="1351" y2="1010" stroke="#000000" stroke-width="1"/>
	<line x1="1176" y1="1010" x2="1351" y2="1010" stroke="#000000" stroke-width="1"/>
	<g>
		<path d="M1396 984 a14 14 90 0 1 14 14 V1010 h-118 V998 a14 14 90 0 1 14 -14" fill="#FFFFFF" stroke="#FFFFFF" stroke-width="0"/>
		<path d="M1410 1010 v12 a14 14 90 0 1 -14 14 H1306 a14 14 90 0 1 -14 -14 V1010 H118" fill="#FFFFFF" stroke="#FFFFFF" stroke-width="0"/>
		<rect x="1292" y="984" width="118" height="52" fill="none" rx="14" stroke="#000000" stroke-width="1.5"/>
		<line x1="1292" y1="1010" x2="1410" y2="1010" stroke="#000000" stroke-width="1"/>
		<text x="1299" y="1002.6" fill="#000000" font-family="Trebuchet MS" font-size="14">FAV_WORLD_OF</text>
	</g>
	<text x="1356" y="1053" fill="#000000" font-family="Verdana" font-size="12">0,N</text>
	<text x="1245" y="1027" fill="#000000" font-family="Verdana" font-size="12">1,1</text>
</g>

<!-- Association AT_WORLD -->
<g>
	<line x1="1351" y1="1159" x2="1176" y2="1159" stroke="#000000" stroke-width="1"/>
	<line x1="1176" y1="1344" x2="1176" y2="1159" stroke="#000000" stroke-width="1"/>
	<g>
		<path d="M1205 1133 a14 14 90 0 1 14 14 V1159 h-86 V1147 a14 14 90 0 1 14 -14" fill="#FFFFFF" stroke="#FFFFFF" stroke-width="0"/>
		<path d="M1219 1159 v12 a14 14 90 0 1 -14 14 H1147 a14 14 90 0 1 -14 -14 V1159 H86" fill="#FFFFFF" stroke="#FFFFFF" stroke-width="0"/>
		<rect x="1133" y="1133" width="86" height="52" fill="none" rx="14" stroke="#000000" stroke-width="1.5"/>
		<line x1="1133" y1="1159" x2="1219" y2="1159" stroke="#000000" stroke-width="1"/>
		<text x="1140" y="1151.6" fill="#000000" font-family="Trebuchet MS" font-size="14">AT_WORLD</text>
	</g>
	<text x="1250" y="1176" fill="#000000" font-family="Verdana" font-size="12">0,N</text>
	<text x="1181" y="1274" fill="#000000" font-family="Verdana" font-size="12">1,1</text>
</g>

<!-- Association MEMO_FOR_WORLD -->
<g>
	<line x1="1351" y1="1431" x2="1351" y2="1344" stroke="#000000" stroke-width="1"/>
	<line x1="1351" y1="1159" x2="1351" y2="1344" stroke="#000000" stroke-width="1"/>
	<g>
		<path d="M1407 1318 a14 14 90 0 1 14 14 V1344 h-140 V1332 a14 14 90 0 1 14 -14" fill="#FFFFFF" stroke="#FFFFFF" stroke-width="0"/>
		<path d="M1421 1344 v12 a14 14 90 0 1 -14 14 H1295 a14 14 90 0 1 -14 -14 V1344 H140" fill="#FFFFFF" stroke="#FFFFFF" stroke-width="0"/>
		<rect x="1281" y="1318" width="140" height="52" fill="none" rx="14" stroke="#000000" stroke-width="1.5"/>
		<line x1="1281" y1="1344" x2="1421" y2="1344" stroke="#000000" stroke-width="1"/>
		<text x="1288" y="1336.6" fill="#000000" font-family="Trebuchet MS" font-size="14">MEMO_FOR_WORLD</text>
	</g>
	<text x="1356" y="1388" fill="#000000" font-family="Verdana" font-size="12">1,1</text>
	<text x="1356" y="1274" fill="#000000" font-family="Verdana" font-size="12">0,N</text>
</g>

<!-- Association MUTUAL_GRAPH_LINK -->
<g>
	<path d="M1711 1431 C1779.67 1397.67 1844.33 1397.67 1905 1431" fill="none" stroke="#000000" stroke-width="1"/>
	<path d="M1711 1431 C1779.67 1464.33 1844.33 1464.33 1905 1431" fill="none" stroke="#000000" stroke-width="1"/>
	<g>
		<path d="M1969 1405 a14 14 90 0 1 14 14 V1431 h-156 V1419 a14 14 90 0 1 14 -14" fill="#FFFFFF" stroke="#FFFFFF" stroke-width="0"/>
		<path d="M1983 1431 v12 a14 14 90 0 1 -14 14 H1841 a14 14 90 0 1 -14 -14 V1431 H156" fill="#FFFFFF" stroke="#FFFFFF" stroke-width="0"/>
		<rect x="1827" y="1405" width="156" height="52" fill="none" rx="14" stroke="#000000" stroke-width="1.5"/>
		<line x1="1827" y1="1431" x2="1983" y2="1431" stroke="#000000" stroke-width="1"/>
		<text x="1834" y="1423.6" fill="#000000" font-family="Trebuchet MS" font-size="14">MUTUAL_GRAPH_LINK</text>
	</g>
	<text x="1800" y="1424" fill="#000000" font-family="Verdana" font-size="12">1,N</text>
	<text x="1800" y="1447" fill="#000000" font-family="Verdana" font-size="12">1,N</text>
</g>

<!-- Association MEMO_FOR_AVATAR -->
<g>
	<line x1="1509" y1="1517" x2="1351" y2="1517" stroke="#000000" stroke-width="1"/>
	<line x1="1351" y1="1675" x2="1351" y2="1517" stroke="#000000" stroke-width="1"/>
	<g>
		<path d="M1409 1491 a14 14 90 0 1 14 14 V1517 h-144 V1505 a14 14 90 0 1 14 -14" fill="#FFFFFF" stroke="#FFFFFF" stroke-width="0"/>
		<path d="M1423 1517 v12 a14 14 90 0 1 -14 14 H1293 a14 14 90 0 1 -14 -14 V1517 H144" fill="#FFFFFF" stroke="#FFFFFF" stroke-width="0"/>
		<rect x="1279" y="1491" width="144" height="52" fill="none" rx="14" stroke="#000000" stroke-width="1.5"/>
		<line x1="1279" y1="1517" x2="1423" y2="1517" stroke="#000000" stroke-width="1"/>
		<text x="1286" y="1509.6" fill="#000000" font-family="Trebuchet MS" font-size="14">MEMO_FOR_AVATAR</text>
	</g>
	<text x="1429" y="1534" fill="#000000" font-family="Verdana" font-size="12">1,1</text>
	<text x="1356" y="1569" fill="#000000" font-family="Verdana" font-size="12">0,N</text>
</g>

<!-- Association FAV_AVATAR_OF -->
<g>
	<line x1="1351" y1="1675" x2="1176" y2="1675" stroke="#000000" stroke-width="1"/>
	<line x1="1176" y1="1517" x2="1176" y2="1675" stroke="#000000" stroke-width="1"/>
	<g>
		<path d="M1223 1649 a14 14 90 0 1 14 14 V1675 h-122 V1663 a14 14 90 0 1 14 -14" fill="#FFFFFF" stroke="#FFFFFF" stroke-width="0"/>
		<path d="M1237 1675 v12 a14 14 90 0 1 -14 14 H1129 a14 14 90 0 1 -14 -14 V1675 H122" fill="#FFFFFF" stroke="#FFFFFF" stroke-width="0"/>
		<rect x="1115" y="1649" width="122" height="52" fill="none" rx="14" stroke="#000000" stroke-width="1.5"/>
		<line x1="1115" y1="1675" x2="1237" y2="1675" stroke="#000000" stroke-width="1"/>
		<text x="1122" y="1667.6" fill="#000000" font-family="Trebuchet MS" font-size="14">FAV_AVATAR_OF</text>
	</g>
	<text x="1250" y="1692" fill="#000000" font-family="Verdana" font-size="12">0,N</text>
	<text x="1181" y="1578" fill="#000000" font-family="Verdana" font-size="12">1,1</text>
</g>

<!-- Association TAGGED -->
<g>
	<line x1="1351" y1="1675" x2="1351" y2="1824" stroke="#000000" stroke-width="1"/>
	<line x1="1176" y1="1824" x2="1351" y2="1824" stroke="#000000" stroke-width="1"/>
	<g>
		<path d="M1371 1798 a14 14 90 0 1 14 14 V1824 h-68 V1812 a14 14 90 0 1 14 -14" fill="#FFFFFF" stroke="#FFFFFF" stroke-width="0"/>
		<path d="M1385 1824 v12 a14 14 90 0 1 -14 14 H1331 a14 14 90 0 1 -14 -14 V1824 H68" fill="#FFFFFF" stroke="#FFFFFF" stroke-width="0"/>
		<rect x="1317" y="1798" width="68" height="52" fill="none" rx="14" stroke="#000000" stroke-width="1.5"/>
		<line x1="1317" y1="1824" x2="1385" y2="1824" stroke="#000000" stroke-width="1"/>
		<text x="1324" y="1816.6" fill="#000000" font-family="Trebuchet MS" font-size="14">TAGGED</text>
	</g>
	<text x="1356" y="1790" fill="#000000" font-family="Verdana" font-size="12">1,N</text>
	<text x="1229" y="1841" fill="#000000" font-family="Verdana" font-size="12">0,N</text>
</g>

<!-- Entity FEED_ONLINE_OFFLINE -->
<g>
	<g>
		<rect x="712" y="9" width="158" height="26" fill="#FFFFFF" stroke="none" stroke-width="0" opacity="1"/>
		<rect x="712" y="35" width="158" height="134" fill="#FFFFFF" stroke="none" stroke-width="0" opacity="1"/>
		<rect x="712" y="9" width="158" height="160" fill="none" stroke="#000000" stroke-width="1.5" opacity="1"/>
		<line x1="712" y1="35" x2="870" y2="35" stroke="#000000" stroke-width="1"/>
	</g>
	<text x="718" y="27.6" fill="#000000" font-family="Trebuchet MS" font-size="14">FEED_ONLINE_OFFLINE</text>
	<text x="717" y="53.6" fill="#000000" font-family="Trebuchet MS" font-size="14">id</text>
	<line x1="717" y1="56" x2="730" y2="56" stroke="#000000" stroke-width="1"/>
	<text x="717" y="71.6" fill="#000000" font-family="Trebuchet MS" font-size="14">created_at</text>
	<text x="717" y="89.6" fill="#000000" font-family="Trebuchet MS" font-size="14">type</text>
	<text x="717" y="107.6" fill="#000000" font-family="Trebuchet MS" font-size="14">location</text>
	<text x="717" y="125.6" fill="#000000" font-family="Trebuchet MS" font-size="14">world_name</text>
	<text x="717" y="143.6" fill="#000000" font-family="Trebuchet MS" font-size="14">time</text>
	<text x="717" y="161.6" fill="#000000" font-family="Trebuchet MS" font-size="14">group_name</text>
</g>

<!-- Entity GAMELOG_JOIN_LEAVE -->
<g>
	<g>
		<rect x="200" y="230" width="158" height="26" fill="#FFFFFF" stroke="none" stroke-width="0" opacity="1"/>
		<rect x="200" y="256" width="158" height="116" fill="#FFFFFF" stroke="none" stroke-width="0" opacity="1"/>
		<rect x="200" y="230" width="158" height="142" fill="none" stroke="#000000" stroke-width="1.5" opacity="1"/>
		<line x1="200" y1="256" x2="358" y2="256" stroke="#000000" stroke-width="1"/>
	</g>
	<text x="205" y="248.6" fill="#000000" font-family="Trebuchet MS" font-size="14">GAMELOG_JOIN_LEAVE</text>
	<text x="205" y="274.6" fill="#000000" font-family="Trebuchet MS" font-size="14">id</text>
	<line x1="205" y1="277" x2="218" y2="277" stroke="#000000" stroke-width="1"/>
	<text x="205" y="292.6" fill="#000000" font-family="Trebuchet MS" font-size="14">created_at</text>
	<text x="205" y="310.6" fill="#000000" font-family="Trebuchet MS" font-size="14">type</text>
	<text x="205" y="328.6" fill="#000000" font-family="Trebuchet MS" font-size="14">display_name</text>
	<text x="205" y="346.6" fill="#000000" font-family="Trebuchet MS" font-size="14">location</text>
	<text x="205" y="364.6" fill="#000000" font-family="Trebuchet MS" font-size="14">time</text>
</g>

<!-- Entity NOTIFICATION -->
<g>
	<g>
		<rect x="582" y="194" width="130" height="26" fill="#FFFFFF" stroke="none" stroke-width="0" opacity="1"/>
		<rect x="582" y="220" width="130" height="188" fill="#FFFFFF" stroke="none" stroke-width="0" opacity="1"/>
		<rect x="582" y="194" width="130" height="214" fill="none" stroke="#000000" stroke-width="1.5" opacity="1"/>
		<line x1="582" y1="220" x2="712" y2="220" stroke="#000000" stroke-width="1"/>
	</g>
	<text x="601" y="212.6" fill="#000000" font-family="Trebuchet MS" font-size="14">NOTIFICATION</text>
	<text x="587" y="238.6" fill="#000000" font-family="Trebuchet MS" font-size="14">id</text>
	<line x1="587" y1="241" x2="600" y2="241" stroke="#000000" stroke-width="1"/>
	<text x="587" y="256.6" fill="#000000" font-family="Trebuchet MS" font-size="14">created_at</text>
	<text x="587" y="274.6" fill="#000000" font-family="Trebuchet MS" font-size="14">type</text>
	<text x="587" y="292.6" fill="#000000" font-family="Trebuchet MS" font-size="14">message</text>
	<text x="587" y="310.6" fill="#000000" font-family="Trebuchet MS" font-size="14">world_name</text>
	<text x="587" y="328.6" fill="#000000" font-family="Trebuchet MS" font-size="14">image_url</text>
	<text x="587" y="346.6" fill="#000000" font-family="Trebuchet MS" font-size="14">invite_message</text>
	<text x="587" y="364.6" fill="#000000" font-family="Trebuchet MS" font-size="14">request_message</text>
	<text x="587" y="382.6" fill="#000000" font-family="Trebuchet MS" font-size="14">response_message</text>
	<text x="587" y="400.6" fill="#000000" font-family="Trebuchet MS" font-size="14">expired</text>
</g>

<!-- Entity FRIEND_LOG_HISTORY -->
<g>
	<g>
		<rect x="865" y="212" width="160" height="26" fill="#FFFFFF" stroke="none" stroke-width="0" opacity="1"/>
		<rect x="865" y="238" width="160" height="152" fill="#FFFFFF" stroke="none" stroke-width="0" opacity="1"/>
		<rect x="865" y="212" width="160" height="178" fill="none" stroke="#000000" stroke-width="1.5" opacity="1"/>
		<line x1="865" y1="238" x2="1025" y2="238" stroke="#000000" stroke-width="1"/>
	</g>
	<text x="874" y="230.6" fill="#000000" font-family="Trebuchet MS" font-size="14">FRIEND_LOG_HISTORY</text>
	<text x="870" y="256.6" fill="#000000" font-family="Trebuchet MS" font-size="14">id</text>
	<line x1="870" y1="259" x2="883" y2="259" stroke="#000000" stroke-width="1"/>
	<text x="870" y="274.6" fill="#000000" font-family="Trebuchet MS" font-size="14">created_at</text>
	<text x="870" y="292.6" fill="#000000" font-family="Trebuchet MS" font-size="14">type</text>
	<text x="870" y="310.6" fill="#000000" font-family="Trebuchet MS" font-size="14">display_name</text>
	<text x="870" y="328.6" fill="#000000" font-family="Trebuchet MS" font-size="14">previous_display_name</text>
	<text x="870" y="346.6" fill="#000000" font-family="Trebuchet MS" font-size="14">trust_level</text>
	<text x="870" y="364.6" fill="#000000" font-family="Trebuchet MS" font-size="14">previous_trust_level</text>
	<text x="870" y="382.6" fill="#000000" font-family="Trebuchet MS" font-size="14">friend_number</text>
</g>

<!-- Entity FEED_STATUS -->
<g>
	<g>
		<rect x="9" y="424" width="190" height="26" fill="#FFFFFF" stroke="none" stroke-width="0" opacity="1"/>
		<rect x="9" y="450" width="190" height="116" fill="#FFFFFF" stroke="none" stroke-width="0" opacity="1"/>
		<rect x="9" y="424" width="190" height="142" fill="none" stroke="#000000" stroke-width="1.5" opacity="1"/>
		<line x1="9" y1="450" x2="199" y2="450" stroke="#000000" stroke-width="1"/>
	</g>
	<text x="60" y="442.6" fill="#000000" font-family="Trebuchet MS" font-size="14">FEED_STATUS</text>
	<text x="14" y="468.6" fill="#000000" font-family="Trebuchet MS" font-size="14">id</text>
	<line x1="14" y1="471" x2="27" y2="471" stroke="#000000" stroke-width="1"/>
	<text x="14" y="486.6" fill="#000000" font-family="Trebuchet MS" font-size="14">created_at</text>
	<text x="14" y="504.6" fill="#000000" font-family="Trebuchet MS" font-size="14">status</text>
	<text x="14" y="522.6" fill="#000000" font-family="Trebuchet MS" font-size="14">status_description</text>
	<text x="14" y="540.6" fill="#000000" font-family="Trebuchet MS" font-size="14">previous_status</text>
	<text x="14" y="558.6" fill="#000000" font-family="Trebuchet MS" font-size="14">previous_status_description</text>
</g>

<!-- Entity FEED_GPS -->
<g>
	<g>
		<rect x="1009" y="415" width="124" height="26" fill="#FFFFFF" stroke="none" stroke-width="0" opacity="1"/>
		<rect x="1009" y="441" width="124" height="134" fill="#FFFFFF" stroke="none" stroke-width="0" opacity="1"/>
		<rect x="1009" y="415" width="124" height="160" fill="none" stroke="#000000" stroke-width="1.5" opacity="1"/>
		<line x1="1009" y1="441" x2="1133" y2="441" stroke="#000000" stroke-width="1"/>
	</g>
	<text x="1039" y="433.6" fill="#000000" font-family="Trebuchet MS" font-size="14">FEED_GPS</text>
	<text x="1014" y="459.6" fill="#000000" font-family="Trebuchet MS" font-size="14">id</text>
	<line x1="1014" y1="462" x2="1027" y2="462" stroke="#000000" stroke-width="1"/>
	<text x="1014" y="477.6" fill="#000000" font-family="Trebuchet MS" font-size="14">created_at</text>
	<text x="1014" y="495.6" fill="#000000" font-family="Trebuchet MS" font-size="14">location</text>
	<text x="1014" y="513.6" fill="#000000" font-family="Trebuchet MS" font-size="14">world_name</text>
	<text x="1014" y="531.6" fill="#000000" font-family="Trebuchet MS" font-size="14">previous_location</text>
	<text x="1014" y="549.6" fill="#000000" font-family="Trebuchet MS" font-size="14">time</text>
	<text x="1014" y="567.6" fill="#000000" font-family="Trebuchet MS" font-size="14">group_name</text>
</g>

<!-- Entity FEED_AVATAR -->
<g>
	<g>
		<rect x="153" y="591" width="252" height="26" fill="#FFFFFF" stroke="none" stroke-width="0" opacity="1"/>
		<rect x="153" y="617" width="252" height="116" fill="#FFFFFF" stroke="none" stroke-width="0" opacity="1"/>
		<rect x="153" y="591" width="252" height="142" fill="none" stroke="#000000" stroke-width="1.5" opacity="1"/>
		<line x1="153" y1="617" x2="405" y2="617" stroke="#000000" stroke-width="1"/>
	</g>
	<text x="234" y="609.6" fill="#000000" font-family="Trebuchet MS" font-size="14">FEED_AVATAR</text>
	<text x="158" y="635.6" fill="#000000" font-family="Trebuchet MS" font-size="14">id</text>
	<line x1="158" y1="638" x2="171" y2="638" stroke="#000000" stroke-width="1"/>
	<text x="158" y="653.6" fill="#000000" font-family="Trebuchet MS" font-size="14">created_at</text>
	<text x="158" y="671.6" fill="#000000" font-family="Trebuchet MS" font-size="14">owner_id</text>
	<text x="158" y="689.6" fill="#000000" font-family="Trebuchet MS" font-size="14">avatar_name</text>
	<text x="158" y="707.6" fill="#000000" font-family="Trebuchet MS" font-size="14">current_avatar_image_url</text>
	<text x="158" y="725.6" fill="#000000" font-family="Trebuchet MS" font-size="14">current_avatar_thumbnail_image_url</text>
</g>

<!-- Entity USER -->
<g>
	<g>
		<rect x="594" y="609" width="106" height="26" fill="#FFFFFF" stroke="none" stroke-width="0" opacity="1"/>
		<rect x="594" y="635" width="106" height="80" fill="#FFFFFF" stroke="none" stroke-width="0" opacity="1"/>
		<rect x="594" y="609" width="106" height="106" fill="none" stroke="#000000" stroke-width="1.5" opacity="1"/>
		<line x1="594" y1="635" x2="700" y2="635" stroke="#000000" stroke-width="1"/>
	</g>
	<text x="631" y="627.6" fill="#000000" font-family="Trebuchet MS" font-size="14">USER</text>
	<text x="599" y="653.6" fill="#000000" font-family="Trebuchet MS" font-size="14">user_id</text>
	<line x1="599" y1="656" x2="647" y2="656" stroke="#000000" stroke-width="1"/>
	<text x="599" y="671.6" fill="#000000" font-family="Trebuchet MS" font-size="14">display_name</text>
	<text x="599" y="689.6" fill="#000000" font-family="Trebuchet MS" font-size="14">trust_level</text>
	<text x="599" y="707.6" fill="#000000" font-family="Trebuchet MS" font-size="14">friend_number</text>
</g>

<!-- Entity FAVORITE_FRIEND -->
<g>
	<g>
		<rect x="882" y="618" width="126" height="26" fill="#FFFFFF" stroke="none" stroke-width="0" opacity="1"/>
		<rect x="882" y="644" width="126" height="62" fill="#FFFFFF" stroke="none" stroke-width="0" opacity="1"/>
		<rect x="882" y="618" width="126" height="88" fill="none" stroke="#000000" stroke-width="1.5" opacity="1"/>
		<line x1="882" y1="644" x2="1008" y2="644" stroke="#000000" stroke-width="1"/>
	</g>
	<text x="887" y="636.6" fill="#000000" font-family="Trebuchet MS" font-size="14">FAVORITE_FRIEND</text>
	<text x="887" y="662.6" fill="#000000" font-family="Trebuchet MS" font-size="14">id</text>
	<line x1="887" y1="665" x2="900" y2="665" stroke="#000000" stroke-width="1"/>
	<text x="887" y="680.6" fill="#000000" font-family="Trebuchet MS" font-size="14">created_at</text>
	<text x="887" y="698.6" fill="#000000" font-family="Trebuchet MS" font-size="14">group_name</text>
</g>

<!-- Entity ACTIVITY_SESSION -->
<g>
	<g>
		<rect x="40" y="758" width="128" height="26" fill="#FFFFFF" stroke="none" stroke-width="0" opacity="1"/>
		<rect x="40" y="784" width="128" height="98" fill="#FFFFFF" stroke="none" stroke-width="0" opacity="1"/>
		<rect x="40" y="758" width="128" height="124" fill="none" stroke="#000000" stroke-width="1.5" opacity="1"/>
		<line x1="40" y1="784" x2="168" y2="784" stroke="#000000" stroke-width="1"/>
	</g>
	<text x="45" y="776.6" fill="#000000" font-family="Trebuchet MS" font-size="14">ACTIVITY_SESSION</text>
	<text x="45" y="802.6" fill="#000000" font-family="Trebuchet MS" font-size="14">session_id</text>
	<line x1="45" y1="805" x2="111" y2="805" stroke="#000000" stroke-width="1"/>
	<text x="45" y="820.6" fill="#000000" font-family="Trebuchet MS" font-size="14">start_at</text>
	<text x="45" y="838.6" fill="#000000" font-family="Trebuchet MS" font-size="14">end_at</text>
	<text x="45" y="856.6" fill="#000000" font-family="Trebuchet MS" font-size="14">is_open_tail</text>
	<text x="45" y="874.6" fill="#000000" font-family="Trebuchet MS" font-size="14">source_revision</text>
</g>

<!-- Entity MODERATION -->
<g>
	<g>
		<rect x="741" y="767" width="100" height="26" fill="#FFFFFF" stroke="none" stroke-width="0" opacity="1"/>
		<rect x="741" y="793" width="100" height="80" fill="#FFFFFF" stroke="none" stroke-width="0" opacity="1"/>
		<rect x="741" y="767" width="100" height="106" fill="none" stroke="#000000" stroke-width="1.5" opacity="1"/>
		<line x1="741" y1="793" x2="841" y2="793" stroke="#000000" stroke-width="1"/>
	</g>
	<text x="749" y="785.6" fill="#000000" font-family="Trebuchet MS" font-size="14">MODERATION</text>
	<text x="746" y="811.6" fill="#000000" font-family="Trebuchet MS" font-size="14">updated_at</text>
	<line x1="746" y1="814" x2="821" y2="814" stroke="#000000" stroke-width="1"/>
	<text x="746" y="829.6" fill="#000000" font-family="Trebuchet MS" font-size="14">display_name</text>
	<text x="746" y="847.6" fill="#000000" font-family="Trebuchet MS" font-size="14">block</text>
	<text x="746" y="865.6" fill="#000000" font-family="Trebuchet MS" font-size="14">mute</text>
</g>

<!-- Entity FEED_BIO -->
<g>
	<g>
		<rect x="233" y="871" width="92" height="26" fill="#FFFFFF" stroke="none" stroke-width="0" opacity="1"/>
		<rect x="233" y="897" width="92" height="80" fill="#FFFFFF" stroke="none" stroke-width="0" opacity="1"/>
		<rect x="233" y="871" width="92" height="106" fill="none" stroke="#000000" stroke-width="1.5" opacity="1"/>
		<line x1="233" y1="897" x2="325" y2="897" stroke="#000000" stroke-width="1"/>
	</g>
	<text x="248" y="889.6" fill="#000000" font-family="Trebuchet MS" font-size="14">FEED_BIO</text>
	<text x="238" y="915.6" fill="#000000" font-family="Trebuchet MS" font-size="14">id</text>
	<line x1="238" y1="918" x2="251" y2="918" stroke="#000000" stroke-width="1"/>
	<text x="238" y="933.6" fill="#000000" font-family="Trebuchet MS" font-size="14">created_at</text>
	<text x="238" y="951.6" fill="#000000" font-family="Trebuchet MS" font-size="14">bio</text>
	<text x="238" y="969.6" fill="#000000" font-family="Trebuchet MS" font-size="14">previous_bio</text>
</g>

<!-- Entity MEMO -->
<g>
	<g>
		<rect x="908" y="889" width="74" height="26" fill="#FFFFFF" stroke="none" stroke-width="0" opacity="1"/>
		<rect x="908" y="915" width="74" height="44" fill="#FFFFFF" stroke="none" stroke-width="0" opacity="1"/>
		<rect x="908" y="889" width="74" height="70" fill="none" stroke="#000000" stroke-width="1.5" opacity="1"/>
		<line x1="908" y1="915" x2="982" y2="915" stroke="#000000" stroke-width="1"/>
	</g>
	<text x="926" y="907.6" fill="#000000" font-family="Trebuchet MS" font-size="14">MEMO</text>
	<text x="913" y="933.6" fill="#000000" font-family="Trebuchet MS" font-size="14">edited_at</text>
	<line x1="913" y1="936" x2="976" y2="936" stroke="#000000" stroke-width="1"/>
	<text x="913" y="951.6" fill="#000000" font-family="Trebuchet MS" font-size="14">memo</text>
</g>

<!-- Entity NOTES -->
<g>
	<g>
		<rect x="445" y="975" width="82" height="26" fill="#FFFFFF" stroke="none" stroke-width="0" opacity="1"/>
		<rect x="445" y="1001" width="82" height="44" fill="#FFFFFF" stroke="none" stroke-width="0" opacity="1"/>
		<rect x="445" y="975" width="82" height="70" fill="none" stroke="#000000" stroke-width="1.5" opacity="1"/>
		<line x1="445" y1="1001" x2="527" y2="1001" stroke="#000000" stroke-width="1"/>
	</g>
	<text x="465" y="993.6" fill="#000000" font-family="Trebuchet MS" font-size="14">NOTES</text>
	<text x="450" y="1019.6" fill="#000000" font-family="Trebuchet MS" font-size="14">note</text>
	<line x1="450" y1="1022" x2="480" y2="1022" stroke="#000000" stroke-width="1"/>
	<text x="450" y="1037.6" fill="#000000" font-family="Trebuchet MS" font-size="14">created_at</text>
</g>

<!-- Entity FAVORITE_WORLD -->
<g>
	<g>
		<rect x="1112" y="966" width="128" height="26" fill="#FFFFFF" stroke="none" stroke-width="0" opacity="1"/>
		<rect x="1112" y="992" width="128" height="62" fill="#FFFFFF" stroke="none" stroke-width="0" opacity="1"/>
		<rect x="1112" y="966" width="128" height="88" fill="none" stroke="#000000" stroke-width="1.5" opacity="1"/>
		<line x1="1112" y1="992" x2="1240" y2="992" stroke="#000000" stroke-width="1"/>
	</g>
	<text x="1118" y="984.6" fill="#000000" font-family="Trebuchet MS" font-size="14">FAVORITE_WORLD</text>
	<text x="1117" y="1010.6" fill="#000000" font-family="Trebuchet MS" font-size="14">id</text>
	<line x1="1117" y1="1013" x2="1130" y2="1013" stroke="#000000" stroke-width="1"/>
	<text x="1117" y="1028.6" fill="#000000" font-family="Trebuchet MS" font-size="14">created_at</text>
	<text x="1117" y="1046.6" fill="#000000" font-family="Trebuchet MS" font-size="14">group_name</text>
</g>

<!-- Entity WORLD -->
<g>
	<g>
		<rect x="1277" y="1061" width="148" height="26" fill="#FFFFFF" stroke="none" stroke-width="0" opacity="1"/>
		<rect x="1277" y="1087" width="148" height="170" fill="#FFFFFF" stroke="none" stroke-width="0" opacity="1"/>
		<rect x="1277" y="1061" width="148" height="196" fill="none" stroke="#000000" stroke-width="1.5" opacity="1"/>
		<line x1="1277" y1="1087" x2="1425" y2="1087" stroke="#000000" stroke-width="1"/>
	</g>
	<text x="1328" y="1079.6" fill="#000000" font-family="Trebuchet MS" font-size="14">WORLD</text>
	<text x="1282" y="1105.6" fill="#000000" font-family="Trebuchet MS" font-size="14">world_id</text>
	<line x1="1282" y1="1108" x2="1339" y2="1108" stroke="#000000" stroke-width="1"/>
	<text x="1282" y="1123.6" fill="#000000" font-family="Trebuchet MS" font-size="14">name</text>
	<text x="1282" y="1141.6" fill="#000000" font-family="Trebuchet MS" font-size="14">description</text>
	<text x="1282" y="1159.6" fill="#000000" font-family="Trebuchet MS" font-size="14">author_id</text>
	<text x="1282" y="1177.6" fill="#000000" font-family="Trebuchet MS" font-size="14">author_name</text>
	<text x="1282" y="1195.6" fill="#000000" font-family="Trebuchet MS" font-size="14">image_url</text>
	<text x="1282" y="1213.6" fill="#000000" font-family="Trebuchet MS" font-size="14">release_status</text>
	<text x="1282" y="1231.6" fill="#000000" font-family="Trebuchet MS" font-size="14">thumbnail_image_url</text>
	<text x="1282" y="1249.6" fill="#000000" font-family="Trebuchet MS" font-size="14">version</text>
</g>

<!-- Entity GAMELOG_LOCATION -->
<g>
	<g>
		<rect x="1103" y="1282" width="146" height="26" fill="#FFFFFF" stroke="none" stroke-width="0" opacity="1"/>
		<rect x="1103" y="1308" width="146" height="98" fill="#FFFFFF" stroke="none" stroke-width="0" opacity="1"/>
		<rect x="1103" y="1282" width="146" height="124" fill="none" stroke="#000000" stroke-width="1.5" opacity="1"/>
		<line x1="1103" y1="1308" x2="1249" y2="1308" stroke="#000000" stroke-width="1"/>
	</g>
	<text x="1108" y="1300.6" fill="#000000" font-family="Trebuchet MS" font-size="14">GAMELOG_LOCATION</text>
	<text x="1108" y="1326.6" fill="#000000" font-family="Trebuchet MS" font-size="14">id</text>
	<line x1="1108" y1="1329" x2="1121" y2="1329" stroke="#000000" stroke-width="1"/>
	<text x="1108" y="1344.6" fill="#000000" font-family="Trebuchet MS" font-size="14">created_at</text>
	<text x="1108" y="1362.6" fill="#000000" font-family="Trebuchet MS" font-size="14">location</text>
	<text x="1108" y="1380.6" fill="#000000" font-family="Trebuchet MS" font-size="14">time</text>
	<text x="1108" y="1398.6" fill="#000000" font-family="Trebuchet MS" font-size="14">group_name</text>
</g>

<!-- Entity WORLD_MEMO -->
<g>
	<g>
		<rect x="1299" y="1396" width="104" height="26" fill="#FFFFFF" stroke="none" stroke-width="0" opacity="1"/>
		<rect x="1299" y="1422" width="104" height="44" fill="#FFFFFF" stroke="none" stroke-width="0" opacity="1"/>
		<rect x="1299" y="1396" width="104" height="70" fill="none" stroke="#000000" stroke-width="1.5" opacity="1"/>
		<line x1="1299" y1="1422" x2="1403" y2="1422" stroke="#000000" stroke-width="1"/>
	</g>
	<text x="1305" y="1414.6" fill="#000000" font-family="Trebuchet MS" font-size="14">WORLD_MEMO</text>
	<text x="1304" y="1440.6" fill="#000000" font-family="Trebuchet MS" font-size="14">edited_at</text>
	<line x1="1304" y1="1443" x2="1367" y2="1443" stroke="#000000" stroke-width="1"/>
	<text x="1304" y="1458.6" fill="#000000" font-family="Trebuchet MS" font-size="14">memo</text>
</g>

<!-- Entity MUTUAL_GRAPH_FRIEND -->
<g>
	<g>
		<rect x="1627" y="1405" width="168" height="26" fill="#FFFFFF" stroke="none" stroke-width="0" opacity="1"/>
		<rect x="1627" y="1431" width="168" height="26" fill="#FFFFFF" stroke="none" stroke-width="0" opacity="1"/>
		<rect x="1627" y="1405" width="168" height="52" fill="none" stroke="#000000" stroke-width="1.5" opacity="1"/>
		<line x1="1627" y1="1431" x2="1795" y2="1431" stroke="#000000" stroke-width="1"/>
	</g>
	<text x="1632" y="1423.6" fill="#000000" font-family="Trebuchet MS" font-size="14">MUTUAL_GRAPH_FRIEND</text>
	<text x="1632" y="1449.6" fill="#000000" font-family="Trebuchet MS" font-size="14">friend_id</text>
	<line x1="1632" y1="1452" x2="1691" y2="1452" stroke="#000000" stroke-width="1"/>
</g>

<!-- Entity FAVORITE_AVATAR -->
<g>
	<g>
		<rect x="1110" y="1473" width="132" height="26" fill="#FFFFFF" stroke="none" stroke-width="0" opacity="1"/>
		<rect x="1110" y="1499" width="132" height="62" fill="#FFFFFF" stroke="none" stroke-width="0" opacity="1"/>
		<rect x="1110" y="1473" width="132" height="88" fill="none" stroke="#000000" stroke-width="1.5" opacity="1"/>
		<line x1="1110" y1="1499" x2="1242" y2="1499" stroke="#000000" stroke-width="1"/>
	</g>
	<text x="1116" y="1491.6" fill="#000000" font-family="Trebuchet MS" font-size="14">FAVORITE_AVATAR</text>
	<text x="1115" y="1517.6" fill="#000000" font-family="Trebuchet MS" font-size="14">id</text>
	<line x1="1115" y1="1520" x2="1128" y2="1520" stroke="#000000" stroke-width="1"/>
	<text x="1115" y="1535.6" fill="#000000" font-family="Trebuchet MS" font-size="14">created_at</text>
	<text x="1115" y="1553.6" fill="#000000" font-family="Trebuchet MS" font-size="14">group_name</text>
</g>

<!-- Entity AVATAR_MEMO -->
<g>
	<g>
		<rect x="1455" y="1482" width="108" height="26" fill="#FFFFFF" stroke="none" stroke-width="0" opacity="1"/>
		<rect x="1455" y="1508" width="108" height="44" fill="#FFFFFF" stroke="none" stroke-width="0" opacity="1"/>
		<rect x="1455" y="1482" width="108" height="70" fill="none" stroke="#000000" stroke-width="1.5" opacity="1"/>
		<line x1="1455" y1="1508" x2="1563" y2="1508" stroke="#000000" stroke-width="1"/>
	</g>
	<text x="1461" y="1500.6" fill="#000000" font-family="Trebuchet MS" font-size="14">AVATAR_MEMO</text>
	<text x="1460" y="1526.6" fill="#000000" font-family="Trebuchet MS" font-size="14">edited_at</text>
	<line x1="1460" y1="1529" x2="1523" y2="1529" stroke="#000000" stroke-width="1"/>
	<text x="1460" y="1544.6" fill="#000000" font-family="Trebuchet MS" font-size="14">memo</text>
</g>

<!-- Entity AVATAR -->
<g>
	<g>
		<rect x="1277" y="1577" width="148" height="26" fill="#FFFFFF" stroke="none" stroke-width="0" opacity="1"/>
		<rect x="1277" y="1603" width="148" height="170" fill="#FFFFFF" stroke="none" stroke-width="0" opacity="1"/>
		<rect x="1277" y="1577" width="148" height="196" fill="none" stroke="#000000" stroke-width="1.5" opacity="1"/>
		<line x1="1277" y1="1603" x2="1425" y2="1603" stroke="#000000" stroke-width="1"/>
	</g>
	<text x="1325" y="1595.6" fill="#000000" font-family="Trebuchet MS" font-size="14">AVATAR</text>
	<text x="1282" y="1621.6" fill="#000000" font-family="Trebuchet MS" font-size="14">avatar_id</text>
	<line x1="1282" y1="1624" x2="1344" y2="1624" stroke="#000000" stroke-width="1"/>
	<text x="1282" y="1639.6" fill="#000000" font-family="Trebuchet MS" font-size="14">name</text>
	<text x="1282" y="1657.6" fill="#000000" font-family="Trebuchet MS" font-size="14">author_id</text>
	<text x="1282" y="1675.6" fill="#000000" font-family="Trebuchet MS" font-size="14">author_name</text>
	<text x="1282" y="1693.6" fill="#000000" font-family="Trebuchet MS" font-size="14">description</text>
	<text x="1282" y="1711.6" fill="#000000" font-family="Trebuchet MS" font-size="14">image_url</text>
	<text x="1282" y="1729.6" fill="#000000" font-family="Trebuchet MS" font-size="14">release_status</text>
	<text x="1282" y="1747.6" fill="#000000" font-family="Trebuchet MS" font-size="14">thumbnail_image_url</text>
	<text x="1282" y="1765.6" fill="#000000" font-family="Trebuchet MS" font-size="14">version</text>
</g>

<!-- Entity AVATAR_TAG -->
<g>
	<g>
		<rect x="1128" y="1789" width="96" height="26" fill="#FFFFFF" stroke="none" stroke-width="0" opacity="1"/>
		<rect x="1128" y="1815" width="96" height="44" fill="#FFFFFF" stroke="none" stroke-width="0" opacity="1"/>
		<rect x="1128" y="1789" width="96" height="70" fill="none" stroke="#000000" stroke-width="1.5" opacity="1"/>
		<line x1="1128" y1="1815" x2="1224" y2="1815" stroke="#000000" stroke-width="1"/>
	</g>
	<text x="1133" y="1807.6" fill="#000000" font-family="Trebuchet MS" font-size="14">AVATAR_TAG</text>
	<text x="1133" y="1833.6" fill="#000000" font-family="Trebuchet MS" font-size="14">tag</text>
	<line x1="1133" y1="1836" x2="1155" y2="1836" stroke="#000000" stroke-width="1"/>
	<text x="1133" y="1851.6" fill="#000000" font-family="Trebuchet MS" font-size="14">color</text>
</g>
</svg>