<?xml version="1.0" encoding="utf-8"?>
<!-- Generated by Mocodo 4.3.3 -->
<svg width="2215" height="1883" viewBox="0 0 2215 1883" xmlns="http://www.w3.org/2000/svg">
<rect x="0" y="0" width="2215" height="1883" fill="#FFFFFF" stroke="none" stroke-width="0"/>

<!-- Association SENT_FROM -->
<g>
	<line x1="739" y1="659" x2="562" y2="300" stroke="#000000" stroke-width="1"/>
	<line x1="739" y1="300" x2="562" y2="300" stroke="#000000" stroke-width="1"/>
	<g>
		<path d="M619 274 a14 14 90 0 1 14 14 V300 h-142 V288 a14 14 90 0 1 14 -14" fill="#FFFFFF" stroke="#FFFFFF" stroke-width="0"/>
		<path d="M633 300 v12 a14 14 90 0 1 -14 14 H505 a14 14 90 0 1 -14 -14 V300 H142" fill="#FFFFFF" stroke="#FFFFFF" stroke-width="0"/>
		<rect x="491" y="274" width="142" height="52" fill="none" rx="14" stroke="#000000" stroke-width="1.5"/>
		<line x1="491" y1="300" x2="633" y2="300" stroke="#000000" stroke-width="1"/>
		<text x="524" y="292.6" fill="#000000" font-family="Courier New" font-size="14">SENT_FROM</text>
		<text x="498" y="318.6" fill="#000000" font-family="Courier New" font-size="14">sender_username</text>
	</g>
	<text x="714.01" y="598" fill="#000000" font-family="Courier New" font-size="12">0,N</text>
	<text x="638" y="316" fill="#000000" font-family="Courier New" font-size="12">1,1</text>
</g>

<!-- Association IS_ONLINE -->
<g>
	<line x1="739" y1="659" x2="894" y2="300" stroke="#000000" stroke-width="1"/>
	<line x1="894" y1="89" x2="894" y2="300" stroke="#000000" stroke-width="1"/>
	<g>
		<path d="M926 274 a14 14 90 0 1 14 14 V300 h-92 V288 a14 14 90 0 1 14 -14" fill="#FFFFFF" stroke="#FFFFFF" stroke-width="0"/>
		<path d="M940 300 v12 a14 14 90 0 1 -14 14 H862 a14 14 90 0 1 -14 -14 V300 H92" fill="#FFFFFF" stroke="#FFFFFF" stroke-width="0"/>
		<rect x="848" y="274" width="92" height="52" fill="none" rx="14" stroke="#000000" stroke-width="1.5"/>
		<line x1="848" y1="300" x2="940" y2="300" stroke="#000000" stroke-width="1"/>
		<text x="856" y="292.6" fill="#000000" font-family="Courier New" font-size="14">IS_ONLINE</text>
	</g>
	<text x="737.27" y="598" fill="#000000" font-family="Courier New" font-size="12">1,N</text>
	<text x="899" y="185" fill="#000000" font-family="Courier New" font-size="12">0,N</text>
</g>

<!-- Association HAS_STATUS -->
<g>
	<line x1="739" y1="659" x2="330" y2="493" stroke="#000000" stroke-width="1"/>
	<line x1="128" y1="493" x2="330" y2="493" stroke="#000000" stroke-width="1"/>
	<g>
		<path d="M366 467 a14 14 90 0 1 14 14 V493 h-100 V481 a14 14 90 0 1 14 -14" fill="#FFFFFF" stroke="#FFFFFF" stroke-width="0"/>
		<path d="M380 493 v12 a14 14 90 0 1 -14 14 H294 a14 14 90 0 1 -14 -14 V493 H100" fill="#FFFFFF" stroke="#FFFFFF" stroke-width="0"/>
		<rect x="280" y="467" width="100" height="52" fill="none" rx="14" stroke="#000000" stroke-width="1.5"/>
		<line x1="280" y1="493" x2="380" y2="493" stroke="#000000" stroke-width="1"/>
		<text x="288" y="485.6" fill="#000000" font-family="Courier New" font-size="14">HAS_STATUS</text>
	</g>
	<text x="651" y="647.47" fill="#000000" font-family="Courier New" font-size="12">1,N</text>
	<text x="252" y="509" fill="#000000" font-family="Courier New" font-size="12">0,N</text>
</g>

<!-- Association JOIN_BY -->
<g>
	<line x1="739" y1="659" x2="562" y2="493" stroke="#000000" stroke-width="1"/>
	<line x1="330" y1="300" x2="562" y2="493" stroke="#000000" stroke-width="1"/>
	<g>
		<path d="M585 467 a14 14 90 0 1 14 14 V493 h-74 V481 a14 14 90 0 1 14 -14" fill="#FFFFFF" stroke="#FFFFFF" stroke-width="0"/>
		<path d="M599 493 v12 a14 14 90 0 1 -14 14 H539 a14 14 90 0 1 -14 -14 V493 H74" fill="#FFFFFF" stroke="#FFFFFF" stroke-width="0"/>
		<rect x="525" y="467" width="74" height="52" fill="none" rx="14" stroke="#000000" stroke-width="1.5"/>
		<line x1="525" y1="493" x2="599" y2="493" stroke="#000000" stroke-width="1"/>
		<text x="532" y="485.6" fill="#000000" font-family="Courier New" font-size="14">JOIN_BY</text>
	</g>
	<text x="680.74" y="598" fill="#000000" font-family="Courier New" font-size="12">1,N</text>
	<text x="417" y="366.37" fill="#000000" font-family="Courier New" font-size="12">0,N</text>
</g>

<!-- Association SENT_TO -->
<g>
	<line x1="739" y1="659" x2="739" y2="493" stroke="#000000" stroke-width="1"/>
	<line x1="739" y1="300" x2="739" y2="493" stroke="#000000" stroke-width="1"/>
	<g>
		<path d="M800 467 a14 14 90 0 1 14 14 V493 h-150 V481 a14 14 90 0 1 14 -14" fill="#FFFFFF" stroke="#FFFFFF" stroke-width="0"/>
		<path d="M814 493 v12 a14 14 90 0 1 -14 14 H678 a14 14 90 0 1 -14 -14 V493 H150" fill="#FFFFFF" stroke="#FFFFFF" stroke-width="0"/>
		<rect x="664" y="467" width="150" height="52" fill="none" rx="14" stroke="#000000" stroke-width="1.5"/>
		<line x1="664" y1="493" x2="814" y2="493" stroke="#000000" stroke-width="1"/>
		<text x="709" y="485.6" fill="#000000" font-family="Courier New" font-size="14">SENT_TO</text>
		<text x="671" y="511.6" fill="#000000" font-family="Courier New" font-size="14">receiver_user_id</text>
	</g>
	<text x="744" y="598" fill="#000000" font-family="Courier New" font-size="12">0,N</text>
	<text x="744" y="423" fill="#000000" font-family="Courier New" font-size="12">1,1</text>
</g>

<!-- Association LOGGED -->
<g>
	<line x1="739" y1="659" x2="894" y2="493" stroke="#000000" stroke-width="1"/>
	<line x1="1067" y1="300" x2="894" y2="493" stroke="#000000" stroke-width="1"/>
	<g>
		<path d="M913 467 a14 14 90 0 1 14 14 V493 h-66 V481 a14 14 90 0 1 14 -14" fill="#FFFFFF" stroke="#FFFFFF" stroke-width="0"/>
		<path d="M927 493 v12 a14 14 90 0 1 -14 14 H875 a14 14 90 0 1 -14 -14 V493 H66" fill="#FFFFFF" stroke="#FFFFFF" stroke-width="0"/>
		<rect x="861" y="467" width="66" height="52" fill="none" rx="14" stroke="#000000" stroke-width="1.5"/>
		<line x1="861" y1="493" x2="927" y2="493" stroke="#000000" stroke-width="1"/>
		<text x="868" y="485.6" fill="#000000" font-family="Courier New" font-size="14">LOGGED</text>
	</g>
	<text x="767.22" y="598" fill="#000000" font-family="Courier New" font-size="12">1,N</text>
	<text x="985.7" y="405" fill="#000000" font-family="Courier New" font-size="12">0,N</text>
</g>

<!-- Association POSTED -->
<g>
	<line x1="739" y1="659" x2="1067" y2="493" stroke="#000000" stroke-width="1"/>
	<line x1="1210" y1="493" x2="1067" y2="493" stroke="#000000" stroke-width="1"/>
	<g>
		<path d="M1086 467 a14 14 90 0 1 14 14 V493 h-66 V481 a14 14 90 0 1 14 -14" fill="#FFFFFF" stroke="#FFFFFF" stroke-width="0"/>
		<path d="M1100 493 v12 a14 14 90 0 1 -14 14 H1048 a14 14 90 0 1 -14 -14 V493 H66" fill="#FFFFFF" stroke="#FFFFFF" stroke-width="0"/>
		<rect x="1034" y="467" width="66" height="52" fill="none" rx="14" stroke="#000000" stroke-width="1.5"/>
		<line x1="1034" y1="493" x2="1100" y2="493" stroke="#000000" stroke-width="1"/>
		<text x="1041" y="485.6" fill="#000000" font-family="Courier New" font-size="14">POSTED</text>
	</g>
	<text x="804" y="640.68" fill="#000000" font-family="Courier New" font-size="12">1,N</text>
	<text x="1105" y="509" fill="#000000" font-family="Courier New" font-size="12">0,N</text>
</g>

<!-- Association HAS_AVATAR -->
<g>
	<line x1="739" y1="659" x2="562" y2="659" stroke="#000000" stroke-width="1"/>
	<line x1="330" y1="659" x2="562" y2="659" stroke="#000000" stroke-width="1"/>
	<g>
		<path d="M598 633 a14 14 90 0 1 14 14 V659 h-100 V647 a14 14 90 0 1 14 -14" fill="#FFFFFF" stroke="#FFFFFF" stroke-width="0"/>
		<path d="M612 659 v12 a14 14 90 0 1 -14 14 H526 a14 14 90 0 1 -14 -14 V659 H100" fill="#FFFFFF" stroke="#FFFFFF" stroke-width="0"/>
		<rect x="512" y="633" width="100" height="52" fill="none" rx="14" stroke="#000000" stroke-width="1.5"/>
		<line x1="512" y1="659" x2="612" y2="659" stroke="#000000" stroke-width="1"/>
		<text x="520" y="651.6" fill="#000000" font-family="Courier New" font-size="14">HAS_AVATAR</text>
	</g>
	<text x="651" y="675" fill="#000000" font-family="Courier New" font-size="12">1,N</text>
	<text x="484" y="675" fill="#000000" font-family="Courier New" font-size="12">0,N</text>
</g>

<!-- Association FAV_FRIEND_OF -->
<g>
	<line x1="739" y1="659" x2="894" y2="659" stroke="#000000" stroke-width="1"/>
	<line x1="1067" y1="659" x2="894" y2="659" stroke="#000000" stroke-width="1"/>
	<g>
		<path d="M942 633 a14 14 90 0 1 14 14 V659 h-124 V647 a14 14 90 0 1 14 -14" fill="#FFFFFF" stroke="#FFFFFF" stroke-width="0"/>
		<path d="M956 659 v12 a14 14 90 0 1 -14 14 H846 a14 14 90 0 1 -14 -14 V659 H124" fill="#FFFFFF" stroke="#FFFFFF" stroke-width="0"/>
		<rect x="832" y="633" width="124" height="52" fill="none" rx="14" stroke="#000000" stroke-width="1.5"/>
		<line x1="832" y1="659" x2="956" y2="659" stroke="#000000" stroke-width="1"/>
		<text x="839" y="651.6" fill="#000000" font-family="Courier New" font-size="14">FAV_FRIEND_OF</text>
	</g>
	<text x="804" y="675" fill="#000000" font-family="Courier New" font-size="12">1,N</text>
	<text x="970" y="675" fill="#000000" font-family="Courier New" font-size="12">0,N</text>
</g>

<!-- Association SESSION_FOR -->
<g>
	<line x1="128" y1="816" x2="330" y2="816" stroke="#000000" stroke-width="1"/>
	<line x1="739" y1="659" x2="330" y2="816" stroke="#000000" stroke-width="1"/>
	<g>
		<path d="M370 790 a14 14 90 0 1 14 14 V816 h-108 V804 a14 14 90 0 1 14 -14" fill="#FFFFFF" stroke="#FFFFFF" stroke-width="0"/>
		<path d="M384 816 v12 a14 14 90 0 1 -14 14 H290 a14 14 90 0 1 -14 -14 V816 H108" fill="#FFFFFF" stroke="#FFFFFF" stroke-width="0"/>
		<rect x="276" y="790" width="108" height="52" fill="none" rx="14" stroke="#000000" stroke-width="1.5"/>
		<line x1="276" y1="816" x2="384" y2="816" stroke="#000000" stroke-width="1"/>
		<text x="283" y="808.6" fill="#000000" font-family="Courier New" font-size="14">SESSION_FOR</text>
	</g>
	<text x="206" y="832" fill="#000000" font-family="Courier New" font-size="12">1,1</text>
	<text x="651" y="677.04" fill="#000000" font-family="Courier New" font-size="12">0,N</text>
</g>

<!-- Association HAS_BIO -->
<g>
	<line x1="739" y1="659" x2="562" y2="816" stroke="#000000" stroke-width="1"/>
	<line x1="330" y1="919" x2="562" y2="816" stroke="#000000" stroke-width="1"/>
	<g>
		<path d="M585 790 a14 14 90 0 1 14 14 V816 h-74 V804 a14 14 90 0 1 14 -14" fill="#FFFFFF" stroke="#FFFFFF" stroke-width="0"/>
		<path d="M599 816 v12 a14 14 90 0 1 -14 14 H539 a14 14 90 0 1 -14 -14 V816 H74" fill="#FFFFFF" stroke="#FFFFFF" stroke-width="0"/>
		<rect x="525" y="790" width="74" height="52" fill="none" rx="14" stroke="#000000" stroke-width="1.5"/>
		<line x1="525" y1="816" x2="599" y2="816" stroke="#000000" stroke-width="1"/>
		<text x="532" y="808.6" fill="#000000" font-family="Courier New" font-size="14">HAS_BIO</text>
	</g>
	<text x="677.78" y="728" fill="#000000" font-family="Courier New" font-size="12">1,N</text>
	<text x="391" y="906.66" fill="#000000" font-family="Courier New" font-size="12">0,N</text>
</g>

<!-- Association MOD_FOR -->
<g>
	<line x1="894" y1="816" x2="739" y2="816" stroke="#000000" stroke-width="1"/>
	<line x1="739" y1="659" x2="739" y2="816" stroke="#000000" stroke-width="1"/>
	<g>
		<path d="M762 790 a14 14 90 0 1 14 14 V816 h-74 V804 a14 14 90 0 1 14 -14" fill="#FFFFFF" stroke="#FFFFFF" stroke-width="0"/>
		<path d="M776 816 v12 a14 14 90 0 1 -14 14 H716 a14 14 90 0 1 -14 -14 V816 H74" fill="#FFFFFF" stroke="#FFFFFF" stroke-width="0"/>
		<rect x="702" y="790" width="74" height="52" fill="none" rx="14" stroke="#000000" stroke-width="1.5"/>
		<line x1="702" y1="816" x2="776" y2="816" stroke="#000000" stroke-width="1"/>
		<text x="709" y="808.6" fill="#000000" font-family="Courier New" font-size="14">MOD_FOR</text>
	</g>
	<text x="810" y="832" fill="#000000" font-family="Courier New" font-size="12">1,1</text>
	<text x="744" y="728" fill="#000000" font-family="Courier New" font-size="12">0,N</text>
</g>

<!-- Association MEMO_FOR_USER -->
<g>
	<line x1="1067" y1="919" x2="1067" y2="816" stroke="#000000" stroke-width="1"/>
	<line x1="739" y1="659" x2="1067" y2="816" stroke="#000000" stroke-width="1"/>
	<g>
		<path d="M1115 790 a14 14 90 0 1 14 14 V816 h-124 V804 a14 14 90 0 1 14 -14" fill="#FFFFFF" stroke="#FFFFFF" stroke-width="0"/>
		<path d="M1129 816 v12 a14 14 90 0 1 -14 14 H1019 a14 14 90 0 1 -14 -14 V816 H124" fill="#FFFFFF" stroke="#FFFFFF" stroke-width="0"/>
		<rect x="1005" y="790" width="124" height="52" fill="none" rx="14" stroke="#000000" stroke-width="1.5"/>
		<line x1="1005" y1="816" x2="1129" y2="816" stroke="#000000" stroke-width="1"/>
		<text x="1012" y="808.6" fill="#000000" font-family="Courier New" font-size="14">MEMO_FOR_USER</text>
	</g>
	<text x="1072" y="876" fill="#000000" font-family="Courier New" font-size="12">1,1</text>
	<text x="804" y="683.47" fill="#000000" font-family="Courier New" font-size="12">0,N</text>
</g>

<!-- Association NOTE_FOR -->
<g>
	<line x1="562" y1="1004" x2="562" y2="919" stroke="#000000" stroke-width="1"/>
	<line x1="739" y1="659" x2="562" y2="919" stroke="#000000" stroke-width="1"/>
	<g>
		<path d="M589 893 a14 14 90 0 1 14 14 V919 h-82 V907 a14 14 90 0 1 14 -14" fill="#FFFFFF" stroke="#FFFFFF" stroke-width="0"/>
		<path d="M603 919 v12 a14 14 90 0 1 -14 14 H535 a14 14 90 0 1 -14 -14 V919 H82" fill="#FFFFFF" stroke="#FFFFFF" stroke-width="0"/>
		<rect x="521" y="893" width="82" height="52" fill="none" rx="14" stroke="#000000" stroke-width="1.5"/>
		<line x1="521" y1="919" x2="603" y2="919" stroke="#000000" stroke-width="1"/>
		<text x="528" y="911.6" fill="#000000" font-family="Courier New" font-size="14">NOTE_FOR</text>
	</g>
	<text x="567" y="961" fill="#000000" font-family="Courier New" font-size="12">1,1</text>
	<text x="702.71" y="728" fill="#000000" font-family="Courier New" font-size="12">0,N</text>
</g>

<!-- Association FAV_WORLD_OF -->
<g>
	<line x1="1501" y1="1170" x2="1501" y2="1004" stroke="#000000" stroke-width="1"/>
	<line x1="1320" y1="1004" x2="1501" y2="1004" stroke="#000000" stroke-width="1"/>
	<g>
		<path d="M1545 978 a14 14 90 0 1 14 14 V1004 h-116 V992 a14 14 90 0 1 14 -14" fill="#FFFFFF" stroke="#FFFFFF" stroke-width="0"/>
		<path d="M1559 1004 v12 a14 14 90 0 1 -14 14 H1457 a14 14 90 0 1 -14 -14 V1004 H116" fill="#FFFFFF" stroke="#FFFFFF" stroke-width="0"/>
		<rect x="1443" y="978" width="116" height="52" fill="none" rx="14" stroke="#000000" stroke-width="1.5"/>
		<line x1="1443" y1="1004" x2="1559" y2="1004" stroke="#000000" stroke-width="1"/>
		<text x="1450" y="996.6" fill="#000000" font-family="Courier New" font-size="14">FAV_WORLD_OF</text>
	</g>
	<text x="1506" y="1064" fill="#000000" font-family="Courier New" font-size="12">0,N</text>
	<text x="1390" y="1020" fill="#000000" font-family="Courier New" font-size="12">1,1</text>
</g>

<!-- Association AT_WORLD -->
<g>
	<line x1="1501" y1="1170" x2="1320" y2="1170" stroke="#000000" stroke-width="1"/>
	<line x1="1320" y1="1354" x2="1320" y2="1170" stroke="#000000" stroke-width="1"/>
	<g>
		<path d="M1347 1144 a14 14 90 0 1 14 14 V1170 h-82 V1158 a14 14 90 0 1 14 -14" fill="#FFFFFF" stroke="#FFFFFF" stroke-width="0"/>
		<path d="M1361 1170 v12 a14 14 90 0 1 -14 14 H1293 a14 14 90 0 1 -14 -14 V1170 H82" fill="#FFFFFF" stroke="#FFFFFF" stroke-width="0"/>
		<rect x="1279" y="1144" width="82" height="52" fill="none" rx="14" stroke="#000000" stroke-width="1.5"/>
		<line x1="1279" y1="1170" x2="1361" y2="1170" stroke="#000000" stroke-width="1"/>
		<text x="1286" y="1162.6" fill="#000000" font-family="Courier New" font-size="14">AT_WORLD</text>
	</g>
	<text x="1387" y="1186" fill="#000000" font-family="Courier New" font-size="12">0,N</text>
	<text x="1325" y="1284" fill="#000000" font-family="Courier New" font-size="12">1,1</text>
</g>

<!-- Association MEMO_FOR_WORLD -->
<g>
	<line x1="1501" y1="1440" x2="1501" y2="1354" stroke="#000000" stroke-width="1"/>
	<line x1="1501" y1="1170" x2="1501" y2="1354" stroke="#000000" stroke-width="1"/>
	<g>
		<path d="M1554 1328 a14 14 90 0 1 14 14 V1354 h-134 V1342 a14 14 90 0 1 14 -14" fill="#FFFFFF" stroke="#FFFFFF" stroke-width="0"/>
		<path d="M1568 1354 v12 a14 14 90 0 1 -14 14 H1448 a14 14 90 0 1 -14 -14 V1354 H134" fill="#FFFFFF" stroke="#FFFFFF" stroke-width="0"/>
		<rect x="1434" y="1328" width="134" height="52" fill="none" rx="14" stroke="#000000" stroke-width="1.5"/>
		<line x1="1434" y1="1354" x2="1568" y2="1354" stroke="#000000" stroke-width="1"/>
		<text x="1442" y="1346.6" fill="#000000" font-family="Courier New" font-size="14">MEMO_FOR_WORLD</text>
	</g>
	<text x="1506" y="1397" fill="#000000" font-family="Courier New" font-size="12">1,1</text>
	<text x="1506" y="1284" fill="#000000" font-family="Courier New" font-size="12">0,N</text>
</g>

<!-- Association MUTUAL_GRAPH_LINK -->
<g>
	<path d="M1878 1440 C1937.33 1408 2014.67 1408 2110 1440" fill="none" stroke="#000000" stroke-width="1"/>
	<path d="M1878 1440 C1937.33 1472 2014.67 1472 2110 1440" fill="none" stroke="#000000" stroke-width="1"/>
	<g>
		<path d="M2175 1414 a14 14 90 0 1 14 14 V1440 h-158 V1428 a14 14 90 0 1 14 -14" fill="#FFFFFF" stroke="#FFFFFF" stroke-width="0"/>
		<path d="M2189 1440 v12 a14 14 90 0 1 -14 14 H2045 a14 14 90 0 1 -14 -14 V1440 H158" fill="#FFFFFF" stroke="#FFFFFF" stroke-width="0"/>
		<rect x="2031" y="1414" width="158" height="52" fill="none" rx="14" stroke="#000000" stroke-width="1.5"/>
		<line x1="2031" y1="1440" x2="2189" y2="1440" stroke="#000000" stroke-width="1"/>
		<text x="2038" y="1432.6" fill="#000000" font-family="Courier New" font-size="14">MUTUAL_GRAPH_LINK</text>
	</g>
	<text x="1969" y="1433" fill="#000000" font-family="Courier New" font-size="12">1,N</text>
	<text x="1969" y="1455" fill="#000000" font-family="Courier New" font-size="12">1,N</text>
</g>

<!-- Association MEMO_FOR_AVATAR -->
<g>
	<line x1="1657" y1="1525" x2="1501" y2="1525" stroke="#000000" stroke-width="1"/>
	<line x1="1501" y1="1691" x2="1501" y2="1525" stroke="#000000" stroke-width="1"/>
	<g>
		<path d="M1558 1499 a14 14 90 0 1 14 14 V1525 h-142 V1513 a14 14 90 0 1 14 -14" fill="#FFFFFF" stroke="#FFFFFF" stroke-width="0"/>
		<path d="M1572 1525 v12 a14 14 90 0 1 -14 14 H1444 a14 14 90 0 1 -14 -14 V1525 H142" fill="#FFFFFF" stroke="#FFFFFF" stroke-width="0"/>
		<rect x="1430" y="1499" width="142" height="52" fill="none" rx="14" stroke="#000000" stroke-width="1.5"/>
		<line x1="1430" y1="1525" x2="1572" y2="1525" stroke="#000000" stroke-width="1"/>
		<text x="1438" y="1517.6" fill="#000000" font-family="Courier New" font-size="14">MEMO_FOR_AVATAR</text>
	</g>
	<text x="1577" y="1541" fill="#000000" font-family="Courier New" font-size="12">1,1</text>
	<text x="1506" y="1585" fill="#000000" font-family="Courier New" font-size="12">0,N</text>
</g>

<!-- Association MUTUAL_GRAPH_LINK_OLD -->
<g>
	<path d="M1878 1525 C1960 1493 2037.33 1493 2110 1525" fill="none" stroke="#000000" stroke-width="1"/>
	<path d="M1878 1525 C1960 1557 2037.33 1557 2110 1525" fill="none" stroke="#000000" stroke-width="1"/>
	<g>
		<path d="M2192 1499 a14 14 90 0 1 14 14 V1525 h-192 V1513 a14 14 90 0 1 14 -14" fill="#FFFFFF" stroke="#FFFFFF" stroke-width="0"/>
		<path d="M2206 1525 v12 a14 14 90 0 1 -14 14 H2028 a14 14 90 0 1 -14 -14 V1525 H192" fill="#FFFFFF" stroke="#FFFFFF" stroke-width="0"/>
		<rect x="2014" y="1499" width="192" height="52" fill="none" rx="14" stroke="#000000" stroke-width="1.5"/>
		<line x1="2014" y1="1525" x2="2206" y2="1525" stroke="#000000" stroke-width="1"/>
		<text x="2021" y="1517.6" fill="#000000" font-family="Courier New" font-size="14">MUTUAL_GRAPH_LINK_OLD</text>
		<text x="2021" y="1543.6" fill="#000000" font-family="Courier New" font-size="14">date</text>
	</g>
	<text x="1986" y="1517" fill="#000000" font-family="Courier New" font-size="12">1,N</text>
	<text x="1986" y="1541" fill="#000000" font-family="Courier New" font-size="12">1,N</text>
</g>

<!-- Association FAV_AVATAR_OF -->
<g>
	<line x1="1501" y1="1691" x2="1320" y2="1691" stroke="#000000" stroke-width="1"/>
	<line x1="1320" y1="1525" x2="1320" y2="1691" stroke="#000000" stroke-width="1"/>
	<g>
		<path d="M1368 1665 a14 14 90 0 1 14 14 V1691 h-124 V1679 a14 14 90 0 1 14 -14" fill="#FFFFFF" stroke="#FFFFFF" stroke-width="0"/>
		<path d="M1382 1691 v12 a14 14 90 0 1 -14 14 H1272 a14 14 90 0 1 -14 -14 V1691 H124" fill="#FFFFFF" stroke="#FFFFFF" stroke-width="0"/>
		<rect x="1258" y="1665" width="124" height="52" fill="none" rx="14" stroke="#000000" stroke-width="1.5"/>
		<line x1="1258" y1="1691" x2="1382" y2="1691" stroke="#000000" stroke-width="1"/>
		<text x="1265" y="1683.6" fill="#000000" font-family="Courier New" font-size="14">FAV_AVATAR_OF</text>
	</g>
	<text x="1387" y="1707" fill="#000000" font-family="Courier New" font-size="12">0,N</text>
	<text x="1325" y="1585" fill="#000000" font-family="Courier New" font-size="12">1,1</text>
</g>

<!-- Association TAGGED -->
<g>
	<line x1="1501" y1="1691" x2="1501" y2="1839" stroke="#000000" stroke-width="1"/>
	<line x1="1320" y1="1839" x2="1501" y2="1839" stroke="#000000" stroke-width="1"/>
	<g>
		<path d="M1520 1813 a14 14 90 0 1 14 14 V1839 h-66 V1827 a14 14 90 0 1 14 -14" fill="#FFFFFF" stroke="#FFFFFF" stroke-width="0"/>
		<path d="M1534 1839 v12 a14 14 90 0 1 -14 14 H1482 a14 14 90 0 1 -14 -14 V1839 H66" fill="#FFFFFF" stroke="#FFFFFF" stroke-width="0"/>
		<rect x="1468" y="1813" width="66" height="52" fill="none" rx="14" stroke="#000000" stroke-width="1.5"/>
		<line x1="1468" y1="1839" x2="1534" y2="1839" stroke="#000000" stroke-width="1"/>
		<text x="1475" y="1831.6" fill="#000000" font-family="Courier New" font-size="14">TAGGED</text>
	</g>
	<text x="1506" y="1805" fill="#000000" font-family="Courier New" font-size="12">1,N</text>
	<text x="1373" y="1855" fill="#000000" font-family="Courier New" font-size="12">0,N</text>
</g>

<!-- Entity FEED_ONLINE_OFFLINE -->
<g>
	<g>
		<rect x="808" y="9" width="172" height="26" fill="#FFFFFF" stroke="none" stroke-width="0" opacity="1"/>
		<rect x="808" y="35" width="172" height="134" fill="#FFFFFF" stroke="none" stroke-width="0" opacity="1"/>
		<rect x="808" y="9" width="172" height="160" fill="none" stroke="#000000" stroke-width="1.5" opacity="1"/>
		<line x1="808" y1="35" x2="980" y2="35" stroke="#000000" stroke-width="1"/>
	</g>
	<text x="814" y="27.6" fill="#000000" font-family="Courier New" font-size="14">FEED_ONLINE_OFFLINE</text>
	<text x="813" y="53.6" fill="#000000" font-family="Courier New" font-size="14">id</text>
	<line x1="813" y1="56" x2="831" y2="56" stroke="#000000" stroke-width="1"/>
	<text x="813" y="71.6" fill="#000000" font-family="Courier New" font-size="14">created_at</text>
	<text x="813" y="89.6" fill="#000000" font-family="Courier New" font-size="14">type</text>
	<text x="813" y="107.6" fill="#000000" font-family="Courier New" font-size="14">location</text>
	<text x="813" y="125.6" fill="#000000" font-family="Courier New" font-size="14">world_name</text>
	<text x="813" y="143.6" fill="#000000" font-family="Courier New" font-size="14">time</text>
	<text x="813" y="161.6" fill="#000000" font-family="Courier New" font-size="14">group_name</text>
</g>

<!-- Entity GAMELOG_JOIN_LEAVE -->
<g>
	<g>
		<rect x="248" y="229" width="164" height="26" fill="#FFFFFF" stroke="none" stroke-width="0" opacity="1"/>
		<rect x="248" y="255" width="164" height="116" fill="#FFFFFF" stroke="none" stroke-width="0" opacity="1"/>
		<rect x="248" y="229" width="164" height="142" fill="none" stroke="#000000" stroke-width="1.5" opacity="1"/>
		<line x1="248" y1="255" x2="412" y2="255" stroke="#000000" stroke-width="1"/>
	</g>
	<text x="254" y="247.6" fill="#000000" font-family="Courier New" font-size="14">GAMELOG_JOIN_LEAVE</text>
	<text x="253" y="273.6" fill="#000000" font-family="Courier New" font-size="14">id</text>
	<line x1="253" y1="276" x2="271" y2="276" stroke="#000000" stroke-width="1"/>
	<text x="253" y="291.6" fill="#000000" font-family="Courier New" font-size="14">created_at</text>
	<text x="253" y="309.6" fill="#000000" font-family="Courier New" font-size="14">type</text>
	<text x="253" y="327.6" fill="#000000" font-family="Courier New" font-size="14">display_name</text>
	<text x="253" y="345.6" fill="#000000" font-family="Courier New" font-size="14">location</text>
	<text x="253" y="363.6" fill="#000000" font-family="Courier New" font-size="14">time</text>
</g>

<!-- Entity NOTIFICATION -->
<g>
	<g>
		<rect x="666" y="193" width="146" height="26" fill="#FFFFFF" stroke="none" stroke-width="0" opacity="1"/>
		<rect x="666" y="219" width="146" height="188" fill="#FFFFFF" stroke="none" stroke-width="0" opacity="1"/>
		<rect x="666" y="193" width="146" height="214" fill="none" stroke="#000000" stroke-width="1.5" opacity="1"/>
		<line x1="666" y1="219" x2="812" y2="219" stroke="#000000" stroke-width="1"/>
	</g>
	<text x="688" y="211.6" fill="#000000" font-family="Courier New" font-size="14">NOTIFICATION</text>
	<text x="671" y="237.6" fill="#000000" font-family="Courier New" font-size="14">id</text>
	<line x1="671" y1="240" x2="689" y2="240" stroke="#000000" stroke-width="1"/>
	<text x="671" y="255.6" fill="#000000" font-family="Courier New" font-size="14">created_at</text>
	<text x="671" y="273.6" fill="#000000" font-family="Courier New" font-size="14">type</text>
	<text x="671" y="291.6" fill="#000000" font-family="Courier New" font-size="14">message</text>
	<text x="671" y="309.6" fill="#000000" font-family="Courier New" font-size="14">world_name</text>
	<text x="671" y="327.6" fill="#000000" font-family="Courier New" font-size="14">image_url</text>
	<text x="671" y="345.6" fill="#000000" font-family="Courier New" font-size="14">invite_message</text>
	<text x="671" y="363.6" fill="#000000" font-family="Courier New" font-size="14">request_message</text>
	<text x="671" y="381.6" fill="#000000" font-family="Courier New" font-size="14">response_message</text>
	<text x="671" y="399.6" fill="#000000" font-family="Courier New" font-size="14">expired</text>
</g>

<!-- Entity FRIEND_LOG_HISTORY -->
<g>
	<g>
		<rect x="973" y="211" width="188" height="26" fill="#FFFFFF" stroke="none" stroke-width="0" opacity="1"/>
		<rect x="973" y="237" width="188" height="152" fill="#FFFFFF" stroke="none" stroke-width="0" opacity="1"/>
		<rect x="973" y="211" width="188" height="178" fill="none" stroke="#000000" stroke-width="1.5" opacity="1"/>
		<line x1="973" y1="237" x2="1161" y2="237" stroke="#000000" stroke-width="1"/>
	</g>
	<text x="991" y="229.6" fill="#000000" font-family="Courier New" font-size="14">FRIEND_LOG_HISTORY</text>
	<text x="978" y="255.6" fill="#000000" font-family="Courier New" font-size="14">id</text>
	<line x1="978" y1="258" x2="996" y2="258" stroke="#000000" stroke-width="1"/>
	<text x="978" y="273.6" fill="#000000" font-family="Courier New" font-size="14">created_at</text>
	<text x="978" y="291.6" fill="#000000" font-family="Courier New" font-size="14">type</text>
	<text x="978" y="309.6" fill="#000000" font-family="Courier New" font-size="14">display_name</text>
	<text x="978" y="327.6" fill="#000000" font-family="Courier New" font-size="14">previous_display_name</text>
	<text x="978" y="345.6" fill="#000000" font-family="Courier New" font-size="14">trust_level</text>
	<text x="978" y="363.6" fill="#000000" font-family="Courier New" font-size="14">previous_trust_level</text>
	<text x="978" y="381.6" fill="#000000" font-family="Courier New" font-size="14">friend_number</text>
</g>

<!-- Entity FEED_STATUS -->
<g>
	<g>
		<rect x="9" y="422" width="238" height="26" fill="#FFFFFF" stroke="none" stroke-width="0" opacity="1"/>
		<rect x="9" y="448" width="238" height="116" fill="#FFFFFF" stroke="none" stroke-width="0" opacity="1"/>
		<rect x="9" y="422" width="238" height="142" fill="none" stroke="#000000" stroke-width="1.5" opacity="1"/>
		<line x1="9" y1="448" x2="247" y2="448" stroke="#000000" stroke-width="1"/>
	</g>
	<text x="81" y="440.6" fill="#000000" font-family="Courier New" font-size="14">FEED_STATUS</text>
	<text x="14" y="466.6" fill="#000000" font-family="Courier New" font-size="14">id</text>
	<line x1="14" y1="469" x2="32" y2="469" stroke="#000000" stroke-width="1"/>
	<text x="14" y="484.6" fill="#000000" font-family="Courier New" font-size="14">created_at</text>
	<text x="14" y="502.6" fill="#000000" font-family="Courier New" font-size="14">status</text>
	<text x="14" y="520.6" fill="#000000" font-family="Courier New" font-size="14">status_description</text>
	<text x="14" y="538.6" fill="#000000" font-family="Courier New" font-size="14">previous_status</text>
	<text x="14" y="556.6" fill="#000000" font-family="Courier New" font-size="14">previous_status_description</text>
</g>

<!-- Entity FEED_GPS -->
<g>
	<g>
		<rect x="1133" y="413" width="154" height="26" fill="#FFFFFF" stroke="none" stroke-width="0" opacity="1"/>
		<rect x="1133" y="439" width="154" height="134" fill="#FFFFFF" stroke="none" stroke-width="0" opacity="1"/>
		<rect x="1133" y="413" width="154" height="160" fill="none" stroke="#000000" stroke-width="1.5" opacity="1"/>
		<line x1="1133" y1="439" x2="1287" y2="439" stroke="#000000" stroke-width="1"/>
	</g>
	<text x="1176" y="431.6" fill="#000000" font-family="Courier New" font-size="14">FEED_GPS</text>
	<text x="1138" y="457.6" fill="#000000" font-family="Courier New" font-size="14">id</text>
	<line x1="1138" y1="460" x2="1156" y2="460" stroke="#000000" stroke-width="1"/>
	<text x="1138" y="475.6" fill="#000000" font-family="Courier New" font-size="14">created_at</text>
	<text x="1138" y="493.6" fill="#000000" font-family="Courier New" font-size="14">location</text>
	<text x="1138" y="511.6" fill="#000000" font-family="Courier New" font-size="14">world_name</text>
	<text x="1138" y="529.6" fill="#000000" font-family="Courier New" font-size="14">previous_location</text>
	<text x="1138" y="547.6" fill="#000000" font-family="Courier New" font-size="14">time</text>
	<text x="1138" y="565.6" fill="#000000" font-family="Courier New" font-size="14">group_name</text>
</g>

<!-- Entity FEED_AVATAR -->
<g>
	<g>
		<rect x="181" y="588" width="298" height="26" fill="#FFFFFF" stroke="none" stroke-width="0" opacity="1"/>
		<rect x="181" y="614" width="298" height="116" fill="#FFFFFF" stroke="none" stroke-width="0" opacity="1"/>
		<rect x="181" y="588" width="298" height="142" fill="none" stroke="#000000" stroke-width="1.5" opacity="1"/>
		<line x1="181" y1="614" x2="479" y2="614" stroke="#000000" stroke-width="1"/>
	</g>
	<text x="283" y="606.6" fill="#000000" font-family="Courier New" font-size="14">FEED_AVATAR</text>
	<text x="186" y="632.6" fill="#000000" font-family="Courier New" font-size="14">id</text>
	<line x1="186" y1="635" x2="204" y2="635" stroke="#000000" stroke-width="1"/>
	<text x="186" y="650.6" fill="#000000" font-family="Courier New" font-size="14">created_at</text>
	<text x="186" y="668.6" fill="#000000" font-family="Courier New" font-size="14">owner_id</text>
	<text x="186" y="686.6" fill="#000000" font-family="Courier New" font-size="14">avatar_name</text>
	<text x="186" y="704.6" fill="#000000" font-family="Courier New" font-size="14">current_avatar_image_url</text>
	<text x="186" y="722.6" fill="#000000" font-family="Courier New" font-size="14">current_avatar_thumbnail_image_url</text>
</g>

<!-- Entity USER -->
<g>
	<g>
		<rect x="679" y="606" width="120" height="26" fill="#FFFFFF" stroke="none" stroke-width="0" opacity="1"/>
		<rect x="679" y="632" width="120" height="80" fill="#FFFFFF" stroke="none" stroke-width="0" opacity="1"/>
		<rect x="679" y="606" width="120" height="106" fill="none" stroke="#000000" stroke-width="1.5" opacity="1"/>
		<line x1="679" y1="632" x2="799" y2="632" stroke="#000000" stroke-width="1"/>
	</g>
	<text x="722" y="624.6" fill="#000000" font-family="Courier New" font-size="14">USER</text>
	<text x="684" y="650.6" fill="#000000" font-family="Courier New" font-size="14">user_id</text>
	<line x1="684" y1="653" x2="744" y2="653" stroke="#000000" stroke-width="1"/>
	<text x="684" y="668.6" fill="#000000" font-family="Courier New" font-size="14">display_name</text>
	<text x="684" y="686.6" fill="#000000" font-family="Courier New" font-size="14">trust_level</text>
	<text x="684" y="704.6" fill="#000000" font-family="Courier New" font-size="14">friend_number</text>
</g>

<!-- Entity FAVORITE_FRIEND -->
<g>
	<g>
		<rect x="998" y="615" width="138" height="26" fill="#FFFFFF" stroke="none" stroke-width="0" opacity="1"/>
		<rect x="998" y="641" width="138" height="62" fill="#FFFFFF" stroke="none" stroke-width="0" opacity="1"/>
		<rect x="998" y="615" width="138" height="88" fill="none" stroke="#000000" stroke-width="1.5" opacity="1"/>
		<line x1="998" y1="641" x2="1136" y2="641" stroke="#000000" stroke-width="1"/>
	</g>
	<text x="1004" y="633.6" fill="#000000" font-family="Courier New" font-size="14">FAVORITE_FRIEND</text>
	<text x="1003" y="659.6" fill="#000000" font-family="Courier New" font-size="14">id</text>
	<line x1="1003" y1="662" x2="1021" y2="662" stroke="#000000" stroke-width="1"/>
	<text x="1003" y="677.6" fill="#000000" font-family="Courier New" font-size="14">created_at</text>
	<text x="1003" y="695.6" fill="#000000" font-family="Courier New" font-size="14">group_name</text>
</g>

<!-- Entity ACTIVITY_SESSION -->
<g>
	<g>
		<rect x="55" y="754" width="146" height="26" fill="#FFFFFF" stroke="none" stroke-width="0" opacity="1"/>
		<rect x="55" y="780" width="146" height="98" fill="#FFFFFF" stroke="none" stroke-width="0" opacity="1"/>
		<rect x="55" y="754" width="146" height="124" fill="none" stroke="#000000" stroke-width="1.5" opacity="1"/>
		<line x1="55" y1="780" x2="201" y2="780" stroke="#000000" stroke-width="1"/>
	</g>
	<text x="60" y="772.6" fill="#000000" font-family="Courier New" font-size="14">ACTIVITY_SESSION</text>
	<text x="60" y="798.6" fill="#000000" font-family="Courier New" font-size="14">session_id</text>
	<line x1="60" y1="801" x2="145" y2="801" stroke="#000000" stroke-width="1"/>
	<text x="60" y="816.6" fill="#000000" font-family="Courier New" font-size="14">start_at</text>
	<text x="60" y="834.6" fill="#000000" font-family="Courier New" font-size="14">end_at</text>
	<text x="60" y="852.6" fill="#000000" font-family="Courier New" font-size="14">is_open_tail</text>
	<text x="60" y="870.6" fill="#000000" font-family="Courier New" font-size="14">source_revision</text>
</g>

<!-- Entity MODERATION -->
<g>
	<g>
		<rect x="838" y="763" width="112" height="26" fill="#FFFFFF" stroke="none" stroke-width="0" opacity="1"/>
		<rect x="838" y="789" width="112" height="80" fill="#FFFFFF" stroke="none" stroke-width="0" opacity="1"/>
		<rect x="838" y="763" width="112" height="106" fill="none" stroke="#000000" stroke-width="1.5" opacity="1"/>
		<line x1="838" y1="789" x2="950" y2="789" stroke="#000000" stroke-width="1"/>
	</g>
	<text x="852" y="781.6" fill="#000000" font-family="Courier New" font-size="14">MODERATION</text>
	<text x="843" y="807.6" fill="#000000" font-family="Courier New" font-size="14">updated_at</text>
	<line x1="843" y1="810" x2="928" y2="810" stroke="#000000" stroke-width="1"/>
	<text x="843" y="825.6" fill="#000000" font-family="Courier New" font-size="14">display_name</text>
	<text x="843" y="843.6" fill="#000000" font-family="Courier New" font-size="14">block</text>
	<text x="843" y="861.6" fill="#000000" font-family="Courier New" font-size="14">mute</text>
</g>

<!-- Entity FEED_BIO -->
<g>
	<g>
		<rect x="274" y="866" width="112" height="26" fill="#FFFFFF" stroke="none" stroke-width="0" opacity="1"/>
		<rect x="274" y="892" width="112" height="80" fill="#FFFFFF" stroke="none" stroke-width="0" opacity="1"/>
		<rect x="274" y="866" width="112" height="106" fill="none" stroke="#000000" stroke-width="1.5" opacity="1"/>
		<line x1="274" y1="892" x2="386" y2="892" stroke="#000000" stroke-width="1"/>
	</g>
	<text x="296" y="884.6" fill="#000000" font-family="Courier New" font-size="14">FEED_BIO</text>
	<text x="279" y="910.6" fill="#000000" font-family="Courier New" font-size="14">id</text>
	<line x1="279" y1="913" x2="297" y2="913" stroke="#000000" stroke-width="1"/>
	<text x="279" y="928.6" fill="#000000" font-family="Courier New" font-size="14">created_at</text>
	<text x="279" y="946.6" fill="#000000" font-family="Courier New" font-size="14">bio</text>
	<text x="279" y="964.6" fill="#000000" font-family="Courier New" font-size="14">previous_bio</text>
</g>

<!-- Entity MEMO -->
<g>
	<g>
		<rect x="1023" y="884" width="88" height="26" fill="#FFFFFF" stroke="none" stroke-width="0" opacity="1"/>
		<rect x="1023" y="910" width="88" height="44" fill="#FFFFFF" stroke="none" stroke-width="0" opacity="1"/>
		<rect x="1023" y="884" width="88" height="70" fill="none" stroke="#000000" stroke-width="1.5" opacity="1"/>
		<line x1="1023" y1="910" x2="1111" y2="910" stroke="#000000" stroke-width="1"/>
	</g>
	<text x="1050" y="902.6" fill="#000000" font-family="Courier New" font-size="14">MEMO</text>
	<text x="1028" y="928.6" fill="#000000" font-family="Courier New" font-size="14">edited_at</text>
	<line x1="1028" y1="931" x2="1105" y2="931" stroke="#000000" stroke-width="1"/>
	<text x="1028" y="946.6" fill="#000000" font-family="Courier New" font-size="14">memo</text>
</g>

<!-- Entity NOTES -->
<g>
	<g>
		<rect x="514" y="969" width="96" height="26" fill="#FFFFFF" stroke="none" stroke-width="0" opacity="1"/>
		<rect x="514" y="995" width="96" height="44" fill="#FFFFFF" stroke="none" stroke-width="0" opacity="1"/>
		<rect x="514" y="969" width="96" height="70" fill="none" stroke="#000000" stroke-width="1.5" opacity="1"/>
		<line x1="514" y1="995" x2="610" y2="995" stroke="#000000" stroke-width="1"/>
	</g>
	<text x="541" y="987.6" fill="#000000" font-family="Courier New" font-size="14">NOTES</text>
	<text x="519" y="1013.6" fill="#000000" font-family="Courier New" font-size="14">note</text>
	<line x1="519" y1="1016" x2="554" y2="1016" stroke="#000000" stroke-width="1"/>
	<text x="519" y="1031.6" fill="#000000" font-family="Courier New" font-size="14">created_at</text>
</g>

<!-- Entity FAVORITE_WORLD -->
<g>
	<g>
		<rect x="1255" y="960" width="130" height="26" fill="#FFFFFF" stroke="none" stroke-width="0" opacity="1"/>
		<rect x="1255" y="986" width="130" height="62" fill="#FFFFFF" stroke="none" stroke-width="0" opacity="1"/>
		<rect x="1255" y="960" width="130" height="88" fill="none" stroke="#000000" stroke-width="1.5" opacity="1"/>
		<line x1="1255" y1="986" x2="1385" y2="986" stroke="#000000" stroke-width="1"/>
	</g>
	<text x="1261" y="978.6" fill="#000000" font-family="Courier New" font-size="14">FAVORITE_WORLD</text>
	<text x="1260" y="1004.6" fill="#000000" font-family="Courier New" font-size="14">id</text>
	<line x1="1260" y1="1007" x2="1278" y2="1007" stroke="#000000" stroke-width="1"/>
	<text x="1260" y="1022.6" fill="#000000" font-family="Courier New" font-size="14">created_at</text>
	<text x="1260" y="1040.6" fill="#000000" font-family="Courier New" font-size="14">group_name</text>
</g>

<!-- Entity WORLD -->
<g>
	<g>
		<rect x="1415" y="1072" width="172" height="26" fill="#FFFFFF" stroke="none" stroke-width="0" opacity="1"/>
		<rect x="1415" y="1098" width="172" height="170" fill="#FFFFFF" stroke="none" stroke-width="0" opacity="1"/>
		<rect x="1415" y="1072" width="172" height="196" fill="none" stroke="#000000" stroke-width="1.5" opacity="1"/>
		<line x1="1415" y1="1098" x2="1587" y2="1098" stroke="#000000" stroke-width="1"/>
	</g>
	<text x="1480" y="1090.6" fill="#000000" font-family="Courier New" font-size="14">WORLD</text>
	<text x="1420" y="1116.6" fill="#000000" font-family="Courier New" font-size="14">world_id</text>
	<line x1="1420" y1="1119" x2="1488" y2="1119" stroke="#000000" stroke-width="1"/>
	<text x="1420" y="1134.6" fill="#000000" font-family="Courier New" font-size="14">name</text>
	<text x="1420" y="1152.6" fill="#000000" font-family="Courier New" font-size="14">description</text>
	<text x="1420" y="1170.6" fill="#000000" font-family="Courier New" font-size="14">author_id</text>
	<text x="1420" y="1188.6" fill="#000000" font-family="Courier New" font-size="14">author_name</text>
	<text x="1420" y="1206.6" fill="#000000" font-family="Courier New" font-size="14">image_url</text>
	<text x="1420" y="1224.6" fill="#000000" font-family="Courier New" font-size="14">release_status</text>
	<text x="1420" y="1242.6" fill="#000000" font-family="Courier New" font-size="14">thumbnail_image_url</text>
	<text x="1420" y="1260.6" fill="#000000" font-family="Courier New" font-size="14">version</text>
</g>

<!-- Entity GAMELOG_LOCATION -->
<g>
	<g>
		<rect x="1247" y="1292" width="146" height="26" fill="#FFFFFF" stroke="none" stroke-width="0" opacity="1"/>
		<rect x="1247" y="1318" width="146" height="98" fill="#FFFFFF" stroke="none" stroke-width="0" opacity="1"/>
		<rect x="1247" y="1292" width="146" height="124" fill="none" stroke="#000000" stroke-width="1.5" opacity="1"/>
		<line x1="1247" y1="1318" x2="1393" y2="1318" stroke="#000000" stroke-width="1"/>
	</g>
	<text x="1252" y="1310.6" fill="#000000" font-family="Courier New" font-size="14">GAMELOG_LOCATION</text>
	<text x="1252" y="1336.6" fill="#000000" font-family="Courier New" font-size="14">id</text>
	<line x1="1252" y1="1339" x2="1270" y2="1339" stroke="#000000" stroke-width="1"/>
	<text x="1252" y="1354.6" fill="#000000" font-family="Courier New" font-size="14">created_at</text>
	<text x="1252" y="1372.6" fill="#000000" font-family="Courier New" font-size="14">location</text>
	<text x="1252" y="1390.6" fill="#000000" font-family="Courier New" font-size="14">time</text>
	<text x="1252" y="1408.6" fill="#000000" font-family="Courier New" font-size="14">group_name</text>
</g>

<!-- Entity WORLD_MEMO -->
<g>
	<g>
		<rect x="1453" y="1405" width="96" height="26" fill="#FFFFFF" stroke="none" stroke-width="0" opacity="1"/>
		<rect x="1453" y="1431" width="96" height="44" fill="#FFFFFF" stroke="none" stroke-width="0" opacity="1"/>
		<rect x="1453" y="1405" width="96" height="70" fill="none" stroke="#000000" stroke-width="1.5" opacity="1"/>
		<line x1="1453" y1="1431" x2="1549" y2="1431" stroke="#000000" stroke-width="1"/>
	</g>
	<text x="1459" y="1423.6" fill="#000000" font-family="Courier New" font-size="14">WORLD_MEMO</text>
	<text x="1458" y="1449.6" fill="#000000" font-family="Courier New" font-size="14">edited_at</text>
	<line x1="1458" y1="1452" x2="1535" y2="1452" stroke="#000000" stroke-width="1"/>
	<text x="1458" y="1467.6" fill="#000000" font-family="Courier New" font-size="14">memo</text>
</g>

<!-- Entity MUTUAL_GRAPH_FRIEND -->
<g>
	<g>
		<rect x="1792" y="1414" width="172" height="26" fill="#FFFFFF" stroke="none" stroke-width="0" opacity="1"/>
		<rect x="1792" y="1440" width="172" height="26" fill="#FFFFFF" stroke="none" stroke-width="0" opacity="1"/>
		<rect x="1792" y="1414" width="172" height="52" fill="none" stroke="#000000" stroke-width="1.5" opacity="1"/>
		<line x1="1792" y1="1440" x2="1964" y2="1440" stroke="#000000" stroke-width="1"/>
	</g>
	<text x="1798" y="1432.6" fill="#000000" font-family="Courier New" font-size="14">MUTUAL_GRAPH_FRIEND</text>
	<text x="1797" y="1458.6" fill="#000000" font-family="Courier New" font-size="14">friend_id</text>
	<line x1="1797" y1="1461" x2="1874" y2="1461" stroke="#000000" stroke-width="1"/>
</g>

<!-- Entity FAVORITE_AVATAR -->
<g>
	<g>
		<rect x="1251" y="1481" width="138" height="26" fill="#FFFFFF" stroke="none" stroke-width="0" opacity="1"/>
		<rect x="1251" y="1507" width="138" height="62" fill="#FFFFFF" stroke="none" stroke-width="0" opacity="1"/>
		<rect x="1251" y="1481" width="138" height="88" fill="none" stroke="#000000" stroke-width="1.5" opacity="1"/>
		<line x1="1251" y1="1507" x2="1389" y2="1507" stroke="#000000" stroke-width="1"/>
	</g>
	<text x="1257" y="1499.6" fill="#000000" font-family="Courier New" font-size="14">FAVORITE_AVATAR</text>
	<text x="1256" y="1525.6" fill="#000000" font-family="Courier New" font-size="14">id</text>
	<line x1="1256" y1="1528" x2="1274" y2="1528" stroke="#000000" stroke-width="1"/>
	<text x="1256" y="1543.6" fill="#000000" font-family="Courier New" font-size="14">created_at</text>
	<text x="1256" y="1561.6" fill="#000000" font-family="Courier New" font-size="14">group_name</text>
</g>

<!-- Entity AVATAR_MEMO -->
<g>
	<g>
		<rect x="1605" y="1490" width="104" height="26" fill="#FFFFFF" stroke="none" stroke-width="0" opacity="1"/>
		<rect x="1605" y="1516" width="104" height="44" fill="#FFFFFF" stroke="none" stroke-width="0" opacity="1"/>
		<rect x="1605" y="1490" width="104" height="70" fill="none" stroke="#000000" stroke-width="1.5" opacity="1"/>
		<line x1="1605" y1="1516" x2="1709" y2="1516" stroke="#000000" stroke-width="1"/>
	</g>
	<text x="1610" y="1508.6" fill="#000000" font-family="Courier New" font-size="14">AVATAR_MEMO</text>
	<text x="1610" y="1534.6" fill="#000000" font-family="Courier New" font-size="14">edited_at</text>
	<line x1="1610" y1="1537" x2="1687" y2="1537" stroke="#000000" stroke-width="1"/>
	<text x="1610" y="1552.6" fill="#000000" font-family="Courier New" font-size="14">memo</text>
</g>

<!-- Entity MUTUAL_GRAPH_FRIEND_OLD -->
<g>
	<g>
		<rect x="1775" y="1490" width="206" height="26" fill="#FFFFFF" stroke="none" stroke-width="0" opacity="1"/>
		<rect x="1775" y="1516" width="206" height="44" fill="#FFFFFF" stroke="none" stroke-width="0" opacity="1"/>
		<rect x="1775" y="1490" width="206" height="70" fill="none" stroke="#000000" stroke-width="1.5" opacity="1"/>
		<line x1="1775" y1="1516" x2="1981" y2="1516" stroke="#000000" stroke-width="1"/>
	</g>
	<text x="1781" y="1508.6" fill="#000000" font-family="Courier New" font-size="14">MUTUAL_GRAPH_FRIEND_OLD</text>
	<text x="1780" y="1534.6" fill="#000000" font-family="Courier New" font-size="14">friend_id</text>
	<line x1="1780" y1="1537" x2="1857" y2="1537" stroke="#000000" stroke-width="1"/>
	<text x="1780" y="1552.6" fill="#000000" font-family="Courier New" font-size="14">last_updated</text>
</g>

<!-- Entity AVATAR -->
<g>
	<g>
		<rect x="1415" y="1593" width="172" height="26" fill="#FFFFFF" stroke="none" stroke-width="0" opacity="1"/>
		<rect x="1415" y="1619" width="172" height="170" fill="#FFFFFF" stroke="none" stroke-width="0" opacity="1"/>
		<rect x="1415" y="1593" width="172" height="196" fill="none" stroke="#000000" stroke-width="1.5" opacity="1"/>
		<line x1="1415" y1="1619" x2="1587" y2="1619" stroke="#000000" stroke-width="1"/>
	</g>
	<text x="1475" y="1611.6" fill="#000000" font-family="Courier New" font-size="14">AVATAR</text>
	<text x="1420" y="1637.6" fill="#000000" font-family="Courier New" font-size="14">avatar_id</text>
	<line x1="1420" y1="1640" x2="1497" y2="1640" stroke="#000000" stroke-width="1"/>
	<text x="1420" y="1655.6" fill="#000000" font-family="Courier New" font-size="14">name</text>
	<text x="1420" y="1673.6" fill="#000000" font-family="Courier New" font-size="14">author_id</text>
	<text x="1420" y="1691.6" fill="#000000" font-family="Courier New" font-size="14">author_name</text>
	<text x="1420" y="1709.6" fill="#000000" font-family="Courier New" font-size="14">description</text>
	<text x="1420" y="1727.6" fill="#000000" font-family="Courier New" font-size="14">image_url</text>
	<text x="1420" y="1745.6" fill="#000000" font-family="Courier New" font-size="14">release_status</text>
	<text x="1420" y="1763.6" fill="#000000" font-family="Courier New" font-size="14">thumbnail_image_url</text>
	<text x="1420" y="1781.6" fill="#000000" font-family="Courier New" font-size="14">version</text>
</g>

<!-- Entity AVATAR_TAG -->
<g>
	<g>
		<rect x="1272" y="1804" width="96" height="26" fill="#FFFFFF" stroke="none" stroke-width="0" opacity="1"/>
		<rect x="1272" y="1830" width="96" height="44" fill="#FFFFFF" stroke="none" stroke-width="0" opacity="1"/>
		<rect x="1272" y="1804" width="96" height="70" fill="none" stroke="#000000" stroke-width="1.5" opacity="1"/>
		<line x1="1272" y1="1830" x2="1368" y2="1830" stroke="#000000" stroke-width="1"/>
	</g>
	<text x="1278" y="1822.6" fill="#000000" font-family="Courier New" font-size="14">AVATAR_TAG</text>
	<text x="1277" y="1848.6" fill="#000000" font-family="Courier New" font-size="14">tag</text>
	<line x1="1277" y1="1851" x2="1303" y2="1851" stroke="#000000" stroke-width="1"/>
	<text x="1277" y="1866.6" fill="#000000" font-family="Courier New" font-size="14">color</text>
</g>
</svg>